<?xml version="1.0" encoding="UTF-8"?><svg id="a" xmlns="http://www.w3.org/2000/svg" viewBox="0 0 40 40"><defs><style>.b{fill:none;}.c{opacity:.5;}</style></defs><g class="c"><rect class="b" width="40" height="40"/></g><g><path d="M12.89,18.54c-.54,0-.99-.41-1.05-.95,0-.03,0-.1,0-.2-.11-1.49-2.77-1.62-2.8-1.62-.58-.02-1.04-.51-1.02-1.09,.02-.57,.49-1.02,1.05-1.02,.01,0,.02,0,.04,0,1.04,.04,2.65,.39,3.72,1.34,.81-.8,2.02-1.21,3.61-1.21,.58,0,1.05,.47,1.05,1.06s-.47,1.06-1.05,1.06c-1.03,0-1.78,.22-2.17,.64-.28,.3-.33,.65-.33,.8,0,.05,0,.1,0,.15,0,.56-.44,1.03-1,1.06-.02,0-.04,0-.05,0Z"/><path d="M7.63,10.07c-.54,0-.99-.41-1.05-.95,0-.03,0-.1,0-.2-.11-1.49-2.77-1.62-2.8-1.62-.58-.02-1.04-.51-1.02-1.09,.02-.57,.49-1.02,1.05-1.02,.01,0,.02,0,.04,0,1.04,.04,2.65,.39,3.72,1.34,.81-.8,2.02-1.21,3.61-1.21,.58,0,1.05,.47,1.05,1.06s-.47,1.06-1.05,1.06c-1.03,0-1.78,.22-2.17,.64-.28,.3-.33,.65-.33,.8,0,.05,0,.1,0,.15,0,.56-.44,1.03-1,1.06-.02,0-.04,0-.05,0Z"/><path d="M23.16,6.9c-.54,0-.99-.41-1.05-.95,0-.03,0-.1,0-.2-.11-1.49-2.77-1.62-2.8-1.62-.58-.02-1.04-.51-1.02-1.09,.02-.57,.49-1.02,1.05-1.02,.01,0,.02,0,.04,0,1.04,.04,2.65,.39,3.72,1.34,.81-.8,2.02-1.21,3.61-1.21,.58,0,1.05,.47,1.05,1.06s-.47,1.06-1.05,1.06c-1.03,0-1.78,.22-2.17,.64-.28,.3-.33,.65-.33,.8,0,.05,0,.1,0,.15,0,.56-.44,1.03-1,1.06-.02,0-.04,0-.05,0Z"/><path d="M38.95,23.18h-1.3c.15-.68,.24-1.39,.24-2.12,0-5.26-4.24-9.53-9.47-9.53s-9.47,4.27-9.47,9.53c0,.73,.09,1.44,.24,2.12H1.05c-.58,0-1.05,.47-1.05,1.06s.47,1.06,1.05,1.06H38.95c.58,0,1.05-.47,1.05-1.06s-.47-1.06-1.05-1.06Zm-17.71,0c-.12-.55-.19-1.12-.19-1.71,0-4.24,3.3-7.67,7.37-7.67s7.37,3.44,7.37,7.67c0,.59-.07,1.16-.19,1.71h-14.36Z"/><path d="M8.42,31.65H4.21c-.58,0-1.05-.47-1.05-1.06s.47-1.06,1.05-1.06h4.21c.58,0,1.05,.47,1.05,1.06s-.47,1.06-1.05,1.06Z"/><path d="M22.11,31.65h-4.21c-.58,0-1.05-.47-1.05-1.06s.47-1.06,1.05-1.06h4.21c.58,0,1.05,.47,1.05,1.06s-.47,1.06-1.05,1.06Z"/><path d="M35.79,31.65h-4.21c-.58,0-1.05-.47-1.05-1.06s.47-1.06,1.05-1.06h4.21c.58,0,1.05,.47,1.05,1.06s-.47,1.06-1.05,1.06Z"/><path d="M28.42,38h-4.21c-.58,0-1.05-.47-1.05-1.06s.47-1.06,1.05-1.06h4.21c.58,0,1.05,.47,1.05,1.06s-.47,1.06-1.05,1.06Z"/><path d="M14.74,38h-4.21c-.58,0-1.05-.47-1.05-1.06s.47-1.06,1.05-1.06h4.21c.58,0,1.05,.47,1.05,1.06s-.47,1.06-1.05,1.06Z"/></g></svg>