<?xml version="1.0" encoding="UTF-8"?><svg id="a" xmlns="http://www.w3.org/2000/svg" viewBox="0 0 40 40"><defs><style>.b{fill:none;}.c{fill:#fff;}.d{opacity:.5;}.e{fill:#eee;opacity:.4;}</style></defs><path class="e" d="M29.91,3.5H10.14c-.3,0-.6,.12-.81,.34-.21,.22-.33,.51-.33,.82l.19,30.42c0,.43,.24,.82,.62,1.02,.38,.2,.84,.16,1.18-.09l9.01-6.46,9.22,6.83c.2,.15,.44,.22,.68,.22,.18,0,.35-.04,.52-.12,.38-.2,.63-.6,.63-1.03V4.65c0-.64-.51-1.15-1.14-1.15Z"/><g><g class="d"><rect class="b" width="40" height="40"/></g><path class="c" d="M30.23,37c-.25,0-.49-.08-.7-.23l-9.54-7.02-9.34,6.63c-.36,.25-.83,.29-1.23,.09-.39-.2-.64-.61-.64-1.05l-.2-31.23c0-.32,.12-.62,.34-.84,.22-.22,.53-.35,.84-.35H30.23c.65,0,1.19,.53,1.19,1.19v31.63c0,.45-.25,.86-.65,1.06-.17,.09-.35,.13-.54,.13Zm-10.23-9.89c.25,0,.49,.08,.7,.23l8.35,6.14V5.37H10.96l.18,27.76,8.18-5.81c.21-.15,.45-.22,.69-.22Z"/></g></svg>