<?xml version="1.0" encoding="UTF-8"?><svg id="a" xmlns="http://www.w3.org/2000/svg" viewBox="0 0 40 40"><path d="M35.88,7.51c-1.52,0-2.75-1.23-2.75-2.74s1.23-2.74,2.75-2.74,2.75,1.23,2.75,2.74-1.23,2.74-2.75,2.74Zm0-4.12c-.76,0-1.37,.61-1.37,1.37s.62,1.37,1.37,1.37,1.37-.61,1.37-1.37-.62-1.37-1.37-1.37Z"/><g><path d="M33.76,24.06c-.69,0-1.24,.55-1.24,1.23v3.5l-2.58,1.78c-.56,.39-.7,1.15-.31,1.71,.24,.34,.63,.52,1.02,.52,.25,0,.49-.07,.71-.22l3.11-2.14c.33-.23,.53-.6,.53-1v-4.14c0-.68-.56-1.23-1.24-1.23Z"/><g><path d="M34.35,11.04l-3.73-1.99c-.6-.32-1.36-.1-1.69,.49-.33,.6-.1,1.34,.5,1.66l1.79,.96s-.02,0-.02,0l-3.73,2.45c-.57,.38-.73,1.14-.34,1.7,.24,.35,.63,.55,1.04,.55,.24,0,.48-.07,.69-.21l3.66-2.41v2c0,.68,.56,1.23,1.24,1.23s1.24-.55,1.24-1.23v-4.14c0-.45-.25-.86-.65-1.08Z"/><path d="M7.49,28.38v-3.55c0-.68-.56-1.23-1.24-1.23s-1.24,.55-1.24,1.23v4.14c0,.37,.17,.72,.46,.95l3.26,2.6c.23,.18,.51,.27,.78,.27,.36,0,.72-.16,.97-.45,.43-.53,.35-1.3-.18-1.72l-2.8-2.24Z"/><path d="M23.2,33.56l-2.19,1.21v-3.2c0-.68-.56-1.23-1.24-1.23s-1.24,.55-1.24,1.23v2.93l-1.53-.92c-.59-.35-1.35-.17-1.71,.41-.36,.58-.17,1.33,.42,1.68l3.58,2.14c.2,.12,.42,.18,.65,.18,.21,0,.42-.05,.61-.16l3.89-2.14c.6-.33,.81-1.08,.48-1.67-.34-.59-1.09-.8-1.69-.47Z"/><path d="M23.2,17.63l-3.25,1.79-2.95-1.77c-.59-.35-1.35-.17-1.71,.41-.36,.58-.17,1.33,.42,1.68l2.82,1.69v4c0,.68,.56,1.23,1.24,1.23s1.24-.55,1.24-1.23v-3.79l3.41-1.88c.6-.33,.81-1.08,.48-1.67-.34-.59-1.09-.8-1.69-.47Z"/><path d="M24.42,6.3l-3.89-2.14c-.39-.22-.87-.21-1.25,.02l-3.58,2.14c-.59,.35-.77,1.11-.42,1.68,.36,.58,1.12,.76,1.71,.41l2.95-1.77,3.25,1.79c.19,.11,.4,.16,.61,.16,.44,0,.86-.23,1.09-.63,.34-.59,.12-1.34-.48-1.67Z"/><path d="M9.25,12.37l1.32-.7c.6-.32,.83-1.06,.5-1.66-.33-.59-1.08-.82-1.69-.49l-3.73,1.99c-.4,.21-.65,.63-.65,1.08v4.14c0,.68,.56,1.23,1.24,1.23s1.24-.55,1.24-1.23v-2.59s.05,.06,.09,.09l3.73,2.45c.21,.14,.45,.21,.69,.21,.4,0,.8-.19,1.04-.55,.38-.56,.23-1.32-.34-1.7l-3.43-2.26Z"/></g></g><path d="M2.69,5.46c.14,0,.28-.04,.41-.13l1.65-1.21,.62,.7c.14,.16,.33,.23,.52,.23,.16,0,.32-.06,.45-.17,.29-.25,.31-.68,.07-.97l-.54-.62,1.45-1.06c.31-.22,.37-.65,.15-.96-.23-.31-.65-.37-.96-.15l-1.54,1.13-.47-.54c-.25-.29-.69-.31-.97-.06-.29,.25-.31,.68-.07,.97l.39,.45-1.56,1.14c-.31,.22-.37,.65-.15,.96,.13,.18,.34,.28,.56,.28Z"/><circle cx="38.63" cy="10.25" r="1.37"/></svg>