<svg width="20" height="20" viewBox="0 0 20 20" fill="none" xmlns="http://www.w3.org/2000/svg">
<path d="M9.125 17.5833C9.125 17.5833 13 17.5833 11.25 14.3483C9.795 11.6633 11.56 10.8133 12.31 10.4783C14 9.72831 14.82 8.69331 14.685 7.58831C14.5 6.02831 12.185 4.93331 10 5.56831C7.205 6.37831 5.5 7.87831 5.5 10.4783C5.5 13.4233 6 17.5833 9.125 17.5833Z" fill="white"/>
<path d="M5.5 6.08301C6.05228 6.08301 6.5 5.63529 6.5 5.08301C6.5 4.53072 6.05228 4.08301 5.5 4.08301C4.94772 4.08301 4.5 4.53072 4.5 5.08301C4.5 5.63529 4.94772 6.08301 5.5 6.08301Z" fill="white"/>
<path d="M8 4.58301C8.55228 4.58301 9 4.13529 9 3.58301C9 3.03072 8.55228 2.58301 8 2.58301C7.44772 2.58301 7 3.03072 7 3.58301C7 4.13529 7.44772 4.58301 8 4.58301Z" fill="white"/>
<path d="M11 3.83301C11.6904 3.83301 12.25 3.27336 12.25 2.58301C12.25 1.89265 11.6904 1.33301 11 1.33301C10.3096 1.33301 9.75 1.89265 9.75 2.58301C9.75 3.27336 10.3096 3.83301 11 3.83301Z" fill="white"/>
<path d="M14.25 4.20801C15.0094 4.20801 15.625 3.5924 15.625 2.83301C15.625 2.07362 15.0094 1.45801 14.25 1.45801C13.4906 1.45801 12.875 2.07362 12.875 2.83301C12.875 3.5924 13.4906 4.20801 14.25 4.20801Z" fill="white"/>
</svg>
