<?xml version="1.0" encoding="UTF-8"?><svg id="a" xmlns="http://www.w3.org/2000/svg" viewBox="0 0 40 40"><defs><style>.b{fill:none;}.c{opacity:.5;}</style></defs><g class="c"><rect class="b" y="0" width="40" height="40"/></g><g><path d="M38.89,23.64c.62,0,1.11-.54,1.11-1.21v-7.73c0-.67-.5-1.21-1.11-1.21h-2.65s-.02-.04-.04-.05L20.35,.25c-.4-.34-.96-.33-1.36,0L3.94,12.98c-.16,.13-.26,.31-.33,.5H1.11c-.62,0-1.11,.54-1.11,1.21v7.58c0,.67,.5,1.21,1.11,1.21h1.61v14.09H1.5c-.62,0-1.11,.54-1.11,1.21s.5,1.21,1.11,1.21H38.76c.62,0,1.11-.54,1.11-1.21s-.5-1.21-1.11-1.21h-1.61v-13.94h1.74Zm-1.11-2.42h-8.66l-4.69-5.3h13.35v5.3ZM19.68,2.74l12.9,10.74h-9.92c-.12,0-.23,.02-.33,.06l-1.33-1.5c-.21-.23-.49-.37-.79-.37-.29,.02-.58,.12-.8,.35l-1.38,1.47s-.03,0-.04,0H6.97L19.68,2.74ZM2.23,15.91H15.75l-4.84,5.15H2.23v-5.15Zm2.73,21.67v-14.09h5.04v14.09H4.96Zm10.64,0v-3.64h9.19v3.64H15.6Zm11.42,0v-4.85c0-.67-.5-1.21-1.11-1.21H14.48c-.62,0-1.11,.54-1.11,1.21v4.85h-1.14v-14.52l7.95-8.46,7.47,8.46v14.52h-.63Zm7.89,0h-5.04v-13.94h5.04v13.94Z"/><path d="M25.91,23.03H14.48c-.62,0-1.11,.54-1.11,1.21v4.85c0,.67,.5,1.21,1.11,1.21h11.42c.62,0,1.11-.54,1.11-1.21v-4.85c0-.67-.5-1.21-1.11-1.21Zm-1.11,4.85H15.6v-2.42h9.19v2.42Z"/></g></svg>