<?xml version="1.0" encoding="UTF-8"?>
<svg id="Layer_1" data-name="Layer 1" xmlns="http://www.w3.org/2000/svg" viewBox="0 0 40 40">
  <path d="M16.38,15.48c.2,.2,.45,.29,.71,.29s.51-.1,.71-.29l.71-.71c.37,.17,.78,.27,1.21,.27s.84-.1,1.21-.27l.71,.71c.2,.2,.45,.29,.71,.29s.51-.1,.71-.29c.39-.39,.39-1.02,0-1.41l-.71-.71c.17-.37,.27-.78,.27-1.21,0-.47-.12-.9-.32-1.29l.76-.76c.39-.39,.39-1.02,0-1.41s-1.02-.39-1.41,0l-.8,.8c-.35-.15-.72-.23-1.12-.23s-.78,.08-1.12,.23l-.8-.8c-.39-.39-1.02-.39-1.41,0s-.39,1.02,0,1.41l.76,.76c-.2,.39-.32,.83-.32,1.29,0,.43,.1,.84,.27,1.21l-.71,.71c-.39,.39-.39,1.02,0,1.41Zm4.23-3.33c0,.49-.4,.89-.89,.89s-.89-.4-.89-.89,.4-.89,.89-.89,.89,.4,.89,.89Z"/>
  <path d="M33.04,28.16c.41-.48,.67-1.09,.67-1.76,0-1.07-.52-2.01-1.34-2.53,.06-.44,.29-.75,.77-1.35l.27-.35c1.02-1.31,1.58-2.04,1.61-3.01,.04-1.43-1-2.42-1.31-2.68-.57-.48-1.22-.73-1.82-.85,1.05-1.74,1.85-3.81,1.84-6.06,0-.94-.01-2.68-1.3-4.06-1.37-1.48-3.35-1.63-4.43-1.58-1.01-1.2-2.28-2.17-3.69-2.83C22.89,.42,21.3,.06,19.72,.05h-.01c-1.58,.01-3.16,.37-4.58,1.04-1.41,.66-2.68,1.64-3.69,2.83-1.08-.06-3.06,.11-4.43,1.58-1.29,1.39-1.3,3.13-1.3,4.06-.01,2.26,.79,4.32,1.84,6.06-.6,.12-1.25,.36-1.82,.85-.32,.27-1.35,1.26-1.32,2.69,.02,.97,.59,1.69,1.61,3.01l.27,.35c.47,.59,.71,.91,.77,1.35-.82,.52-1.34,1.47-1.34,2.53,0,.67,.26,1.28,.68,1.76-.41,.42-.82,.97-1.07,1.64-.57,1.55-.29,2.63-.06,3.13,.18,.4,.39,.75,.59,1.09,.31,.51,.58,.96,.6,1.41,.02,.47-.13,.75-.34,1.09-.25,.42-.66,1.12-.23,1.99,.36,.73,1.21,1.25,2.28,1.4,.2,.03,.4,.04,.6,.04,.93,0,1.75-.32,2.27-.89,.8-.88,.68-2.05,.62-2.68-.08-.81-.32-1.3-.54-1.72-.16-.31-.29-.58-.4-1.03-.3-1.29-.14-1.61-.16-1.62,0,0,.49-.16,2.16,.76,1.61,.88,3.07,1.3,6.98,1.3s5.37-.42,6.98-1.3c1.58-.87,2.1-.78,2.11-.8,.04,.06,.18,.4-.11,1.66-.11,.46-.24,.72-.4,1.03-.21,.43-.46,.91-.54,1.72-.06,.63-.17,1.8,.62,2.68,.52,.58,1.35,.89,2.27,.89,.2,0,.4-.01,.6-.04,1.07-.15,1.93-.68,2.28-1.4,.42-.87,.01-1.57-.23-1.99-.2-.34-.36-.61-.34-1.09,.02-.45,.29-.89,.6-1.41,.2-.34,.42-.69,.59-1.09,.22-.51,.51-1.59-.06-3.14-.25-.67-.66-1.21-1.06-1.63Zm-13.32-1.12h0c-1.89,0-3.81,.01-5.73,.03-1.92,.01-3.83,.03-5.63,.03-.35-.03-.62-.34-.62-.71,0-.34,.15-.74,.5-.89H31.21c.34,.15,.5,.55,.5,.89,0,.37-.28,.68-.54,.71-1.89,0-3.8-.01-5.72-.03-1.92-.01-3.84-.03-5.73-.03Zm12.7-9.04c.06,.05,.62,.54,.61,1.11,0,.31-.48,.92-1.19,1.83l-.26,.33c-.52,.65-1,1.29-1.16,2.23h-1.8v-3.85c.59-.56,1.26-1.27,1.91-2.09,.29-.04,1.24-.1,1.88,.44ZM8.47,6.86c.74-.8,1.88-.95,2.62-.95,.17,.48,.48,1.04,1.01,1.54,.98,.92,2.12,1.06,2.57,1.07,.01,0,.03,0,.04,0,.54,0,.98-.42,1-.96,.02-.55-.41-1.02-.96-1.04-.22,0-.79-.08-1.27-.53-.27-.26-.42-.55-.5-.79,.63-.75,1.6-1.65,3-2.31,1.16-.54,2.45-.84,3.74-.85,1.29,0,2.58,.3,3.74,.85,1.4,.66,2.37,1.56,3,2.31-.08,.24-.23,.53-.5,.79-.48,.46-1.05,.52-1.27,.53-.55,.02-.98,.48-.96,1.04,.02,.54,.46,.96,1,.96,.01,0,.03,0,.04,0,.45-.02,1.59-.16,2.57-1.07,.53-.5,.83-1.06,1.01-1.54,.74,0,1.88,.15,2.62,.95,.7,.75,.76,1.75,.77,2.71,.02,3.76-2.9,7.09-4.46,8.6-.14-.04-.31-.11-.45-.26-.29-.32-.23-.75-.22-.76,.08-.55-.29-1.06-.84-1.14-.54-.08-1.06,.29-1.14,.84-.05,.32-.15,1.44,.71,2.4,.41,.46,.88,.7,1.29,.83v3.42H12.81v-3.42c.42-.13,.89-.37,1.29-.83,.68-.76,.81-1.74,.71-2.41-.09-.54-.6-.92-1.15-.83-.55,.09-.92,.6-.83,1.14,0,.02,.07,.43-.22,.76-.14,.15-.3,.23-.45,.27-1.57-1.51-4.48-4.84-4.46-8.6,0-.96,.07-1.96,.77-2.71Zm-1.45,11.14c.64-.54,1.58-.48,1.88-.44,.66,.82,1.33,1.53,1.91,2.09v3.85h-1.8c-.16-.94-.64-1.57-1.16-2.23l-.26-.33c-.71-.92-1.18-1.52-1.19-1.83-.01-.56,.55-1.05,.61-1.11Zm25.31,14.13c-.12,.28-.29,.56-.47,.86-.39,.65-.84,1.39-.89,2.34-.06,1.07,.34,1.75,.61,2.2,.03,.05,.06,.11,.09,.16-.14,.1-.45,.23-.86,.26-.48,.04-.82-.09-.95-.23-.2-.22-.15-.8-.11-1.14,.04-.44,.15-.66,.33-1.01,.18-.35,.4-.79,.56-1.48,.17-.72,.61-2.63-.51-3.61-1.19-1.03-3.08-.18-4.39,.54-1.17,.64-2.21,1.06-6.02,1.06s-4.85-.42-6.02-1.06c-1.32-.73-3.21-1.57-4.39-.54-1.13,.98-.68,2.89-.51,3.61,.16,.69,.38,1.13,.56,1.48,.18,.36,.29,.57,.33,1.01,.03,.34,.09,.92-.11,1.14-.13,.14-.47,.27-.95,.23-.41-.03-.72-.16-.86-.26,.03-.05,.06-.11,.09-.16,.26-.45,.66-1.13,.61-2.2-.05-.95-.49-1.69-.89-2.34-.18-.3-.35-.58-.47-.86-.06-.14-.24-.69,.11-1.64,.24-.65,.81-1.15,1.13-1.4,1.87,0,3.76-.01,5.66-.03,1.91-.01,3.83-.03,5.72-.03s3.8,.01,5.72,.03c1.71,.01,3.43,.03,5.18,.03,.16,0,.31,0,.47,0,.32,.24,.9,.75,1.14,1.4,.35,.95,.17,1.49,.11,1.64Z"/>
</svg>