<?xml version="1.0" encoding="UTF-8"?><svg id="a" xmlns="http://www.w3.org/2000/svg" viewBox="0 0 40 40"><defs><style>.b{fill:none;}.c{opacity:.5;}</style></defs><g class="c"><rect class="b" width="40" height="40"/></g><path d="M33,0H12.05C11.34,0,10.75,.58,10.75,1.3v3.83h-3.76c-.35,0-.68,.14-.92,.38-.24,.25-.38,.58-.38,.93l.2,31.86c0,.48,.28,.93,.71,1.15s.95,.18,1.35-.1l9.47-6.73,9.68,7.12c.23,.17,.5,.25,.77,.25,.2,0,.4-.05,.59-.14,.44-.22,.71-.67,.71-1.16v-6.87l3.05,2.26c.23,.17,.5,.25,.77,.25,.2,0,.4-.05,.59-.14,.44-.22,.72-.67,.72-1.16V1.3C34.31,.58,33.72,0,33,0Zm-6.43,7.73v28.39l-8.37-6.15c-.23-.17-.5-.25-.77-.25s-.53,.08-.75,.24l-8.2,5.82-.18-28.05M31.7,30.46l-2.52-1.87V6.43c0-.72-.58-1.3-1.3-1.3H13.36V2.6H31.7V30.46Z"/></svg>