<svg width="30" height="30" viewBox="0 0 30 30" fill="none" xmlns="http://www.w3.org/2000/svg">
<g clip-path="url(#clip0_137_3034)">
<path d="M24.75 0H9.03746C8.50496 0 8.06246 0.435 8.06246 0.975V3.8475H5.24246C4.97996 3.8475 4.73246 3.9525 4.55246 4.1325C4.37246 4.32 4.26746 4.5675 4.26746 4.83L4.41746 28.725C4.41746 29.085 4.62746 29.4225 4.94996 29.5875C5.27246 29.7525 5.66246 29.7225 5.96246 29.5125L13.065 24.465L20.325 29.805C20.4975 29.9325 20.7 29.9925 20.9025 29.9925C21.0525 29.9925 21.2025 29.955 21.345 29.8875C21.675 29.7225 21.8775 29.385 21.8775 29.0175V23.865L24.165 25.56C24.3375 25.6875 24.54 25.7475 24.7425 25.7475C24.8925 25.7475 25.0425 25.71 25.185 25.6425C25.515 25.4775 25.725 25.14 25.725 24.7725V0.975C25.7325 0.435 25.29 0 24.75 0ZM19.9275 27.09L13.65 22.4775C13.4775 22.35 13.275 22.29 13.0725 22.29C12.87 22.29 12.675 22.35 12.51 22.47L6.35996 26.835L6.22496 5.7975H8.81996C8.88746 5.8125 8.95496 5.8425 9.02996 5.8425C9.10496 5.8425 9.17246 5.8125 9.23996 5.7975H19.92V27.09H19.9275ZM23.775 22.8375L21.885 21.435V4.8225C21.885 4.2825 21.45 3.8475 20.91 3.8475H10.02V1.95H23.775V22.845V22.8375Z" fill="#2A4992"/>
</g>
<defs>
<clipPath id="clip0_137_3034">
<rect width="30" height="30" fill="white"/>
</clipPath>
</defs>
</svg>

