<?xml version="1.0" encoding="UTF-8"?><svg id="a" xmlns="http://www.w3.org/2000/svg" viewBox="0 0 40 40"><defs><style>.b{fill:none;}.c{opacity:.5;}</style></defs><g class="c"><rect class="b" width="40" height="40"/></g><g><path d="M19.5,18.58c-3.41,0-6.18-2.68-6.18-5.97s2.77-5.97,6.18-5.97,6.18,2.68,6.18,5.97-2.77,5.97-6.18,5.97Zm0-9.55c-2.04,0-3.71,1.61-3.71,3.58s1.66,3.58,3.71,3.58,3.71-1.61,3.71-3.58-1.66-3.58-3.71-3.58Z"/><g><path d="M19.61,35.67c-.37,0-.72-.16-.96-.44-.48-.57-11.86-14.15-11.86-22.25C6.8,4.46,13.17,0,19.46,0s13.13,4.25,13.13,13.58c0,7.2-11.52,21.06-12.01,21.65-.23,.28-.59,.44-.96,.44h0Zm-.15-33.28c-4.91,0-10.19,3.32-10.19,10.6,0,5.98,7.62,16.12,10.35,19.56,3.63-4.55,10.5-14.15,10.5-18.96,0-7.73-5.35-11.19-10.66-11.19Z"/><path d="M19.61,40c-6.4,0-19.61-2.33-19.61-9.55,0-5.51,5.11-7.19,7.82-7.31,.66-.05,1.26,.48,1.29,1.14,.03,.66-.49,1.22-1.17,1.25-.56,.03-5.47,.41-5.47,4.93s9.98,7.16,17.14,7.16c6.43,0,17.92-2.44,17.92-7.31,0-3.67-5.25-5.26-5.3-5.28-.65-.19-1.02-.86-.82-1.49,.2-.63,.88-.98,1.54-.8,.29,.08,7.06,2.11,7.06,7.56,0,7.26-14,9.7-20.39,9.7Z"/></g></g></svg>