<svg width="30" height="30" viewBox="0 0 30 30" fill="none" xmlns="http://www.w3.org/2000/svg">
<g clip-path="url(#clip0_188_2761)">
<path d="M22.6726 27.75C22.4851 27.75 22.3051 27.69 22.1476 27.5775L14.9926 22.3125L7.98756 27.285C7.71756 27.4725 7.36506 27.5025 7.06506 27.3525C6.77256 27.2025 6.58506 26.895 6.58506 26.565L6.43506 3.1425C6.43506 2.9025 6.52506 2.6775 6.69006 2.5125C6.85506 2.3475 7.08756 2.25 7.32006 2.25H22.6726C23.1601 2.25 23.5651 2.6475 23.5651 3.1425V26.865C23.5651 27.2025 23.3776 27.51 23.0776 27.66C22.9501 27.7275 22.8151 27.7575 22.6726 27.7575V27.75ZM15.0001 20.3325C15.1876 20.3325 15.3676 20.3925 15.5251 20.505L21.7876 25.11V4.0275H8.22006L8.35506 24.8475L14.4901 20.49C14.6476 20.3775 14.8276 20.325 15.0076 20.325L15.0001 20.3325Z" fill="black"/>
</g>
<defs>
<clipPath id="clip0_188_2761">
<rect width="30" height="30" fill="white"/>
</clipPath>
</defs>
</svg>
