<?xml version="1.0" encoding="UTF-8"?>
<svg id="Layer_1" data-name="Layer 1" xmlns="http://www.w3.org/2000/svg" viewBox="0 0 40 40">
  <path d="M38.76,26.79h-5.36v-8.86c2.57-.68,4.54-1.58,5.92-2.29,.38-.2,.6-.62,.53-1.04-.07-.43-.4-.76-.83-.83-1.83-.3-3.41-.79-5.3-1.64-1.13-.51-2.22-1.11-3.25-1.8l-.65-3.56,.76-1.21c.29-.47,.15-1.08-.32-1.38-.47-.29-1.08-.15-1.38,.32l-.73,1.16c-1.21,.23-2.44,.42-3.66,.56-1.5,.16-3.01,.25-4.51,.26-1.49-.01-3.01-.1-4.51-.26-1.22-.13-2.45-.32-3.66-.56l-.73-1.16c-.29-.47-.91-.61-1.38-.32-.47,.29-.61,.91-.32,1.38l.76,1.21-.65,3.56c-1.03,.69-2.12,1.29-3.25,1.8-1.89,.85-3.48,1.34-5.3,1.64-.43,.07-.76,.41-.83,.83-.07,.43,.15,.85,.53,1.04,1.38,.7,3.35,1.61,5.92,2.29v8.86H1.24c-.55,0-1,.45-1,1v3.59c0,.55,.45,1,1,1H38.76c.55,0,1-.45,1-1v-3.59c0-.55-.45-1-1-1Zm-7.36,0h-6.22v-7.69c1.45-.08,3.03-.22,4.75-.46,.51-.07,.99-.16,1.47-.25v8.4Zm-11.4,0h-3.18v-7.61c1.15,.03,2.21,.03,3.18,.03s2.03,0,3.18-.03v7.61h-3.18Zm-1.94-18.38c.31,.02,.63,.02,.94,.03v8.77c-.69,0-1.43,0-2.21-.03,.29-1.45,.56-2.91,.77-4.36,.21-1.46,.38-2.94,.5-4.41Zm4.39,4.41c.21,1.45,.47,2.92,.77,4.36-.78,.02-1.52,.03-2.21,.03V8.44c.31,0,.63-.02,.94-.03,.13,1.47,.29,2.96,.5,4.41Zm5.85-.84c-.2-1.4-.36-2.81-.48-4.22,.05,0,.1-.02,.16-.03l.61,3.36c.05,.26,.2,.49,.41,.64,.44,.3,.9,.58,1.36,.85,.23,1.52,.41,2.4,.7,3.77,0,.02,.02,.03,.02,.05-.46,.09-.93,.18-1.42,.25-.18,.02-.34,.04-.52,.07-.33-1.56-.61-3.16-.84-4.74Zm7.49,3.07c-.82,.32-1.74,.64-2.77,.92,0,0,0-.02,0-.02-.17-.82-.31-1.46-.44-2.17,.11,.05,.21,.11,.32,.16,1,.45,1.95,.82,2.88,1.11Zm-11.07-6.85c.37-.04,.74-.09,1.12-.14,.12,1.4,.28,2.82,.48,4.21,.23,1.56,.51,3.14,.83,4.68-.66,.06-1.3,.11-1.92,.14-.31-1.5-.59-3.03-.81-4.56-.2-1.41-.36-2.84-.49-4.27,.26-.02,.52-.04,.78-.06Zm-8.66,.06c-.12,1.42-.28,2.86-.49,4.27-.22,1.51-.49,3.04-.81,4.56-.62-.04-1.25-.08-1.92-.14,.32-1.54,.6-3.12,.83-4.68,.2-1.39,.36-2.8,.48-4.21,.37,.05,.74,.1,1.12,.14,.26,.03,.52,.04,.78,.06Zm-6.42,4.32c.46-.28,.92-.55,1.36-.85,.22-.15,.37-.38,.41-.64l.61-3.36c.05,0,.1,.02,.16,.03-.12,1.41-.28,2.83-.48,4.22-.23,1.58-.51,3.18-.84,4.74-.17-.02-.34-.04-.52-.07-.5-.07-.96-.16-1.42-.25,0-.02,.02-.03,.02-.05,.3-1.44,.48-2.31,.7-3.77Zm-2.55,1.36c.11-.05,.21-.11,.32-.16-.12,.67-.25,1.31-.44,2.17,0,0,0,.02,0,.02-1.03-.28-1.95-.6-2.77-.92,.94-.29,1.88-.66,2.88-1.11Zm1.5,4.45c.47,.09,.96,.17,1.47,.25,1.73,.24,3.3,.38,4.75,.46v7.69h-6.22v-8.4Zm29.16,11.99H2.24v-1.59H37.76v1.59Z"/>
</svg>