<svg width="213" height="167" viewBox="0 0 213 167" fill="none" xmlns="http://www.w3.org/2000/svg">
<path d="M0.994141 152.528C0.994141 158.048 5.45814 161.384 11.9621 161.384C14.1701 161.384 16.0901 161.288 17.7701 161.024C18.2501 160.952 18.3221 160.88 18.3941 160.4C18.7061 158.36 19.0661 155.624 19.0661 154.88C19.0661 154.688 18.9701 154.64 18.4181 154.64C17.8661 154.64 17.7941 154.688 17.7221 154.88C17.2181 156.32 16.3061 158.168 15.2981 159.176C14.4341 160.04 13.6181 160.4 12.7541 160.4C11.9381 160.4 11.3141 160.112 10.6901 159.488C8.98614 157.784 7.69014 153.848 7.69014 149.888C7.69014 146.096 9.68214 144.488 12.1061 144.488C13.5461 144.488 14.3861 144.824 15.2021 145.64C16.2101 146.648 16.9301 147.944 17.4101 149.12C17.4821 149.312 17.5541 149.36 18.1061 149.36C18.6581 149.36 18.7541 149.312 18.7541 149.12C18.7541 147.632 18.5861 145.856 18.3701 144.416C18.2981 143.936 18.2501 143.864 17.7701 143.792C16.2101 143.528 14.6021 143.432 12.7781 143.432C6.61014 143.432 0.994141 146.696 0.994141 152.528Z" fill="white"/>
<path d="M20.5851 155.144C20.5851 159.032 23.4651 161.384 27.6411 161.384C32.0811 161.384 35.1771 159.032 35.1771 154.952C35.1771 151.064 32.2971 148.712 28.1211 148.712C23.6811 148.712 20.5851 151.064 20.5851 155.144ZM25.8171 151.184C25.8171 149.912 26.2251 149.6 26.7051 149.6C26.9451 149.6 27.1611 149.672 27.4491 149.96C28.4811 150.992 29.9451 156.392 29.9451 158.912C29.9451 160.184 29.5371 160.496 29.0571 160.496C28.8171 160.496 28.6011 160.424 28.3131 160.136C27.2811 159.104 25.8171 153.704 25.8171 151.184Z" fill="white"/>
<path d="M52.27 160.136L51.454 159.968C51.214 159.92 51.166 159.872 51.166 159.632V152.816C51.166 150.224 49.606 148.712 47.086 148.712C44.974 148.712 43.438 150.128 42.79 151.544C42.79 150.104 42.886 149.312 42.886 148.928C42.886 148.76 42.43 148.568 42.262 148.568C42.19 148.568 42.142 148.592 42.07 148.64C40.15 150.008 38.278 151.184 36.31 151.952C36.166 152 36.118 152.048 36.118 152.408C36.118 152.792 36.166 152.84 36.31 152.864L37.126 153.008C37.366 153.056 37.414 153.08 37.414 153.32V159.632C37.414 159.872 37.366 159.92 37.126 159.968L36.31 160.136C36.166 160.16 36.118 160.232 36.118 160.664C36.118 161.096 36.166 161.168 36.31 161.168C36.862 161.168 38.446 161 40.198 161C41.95 161 43.342 161.168 43.894 161.168C44.038 161.168 44.086 161.096 44.086 160.664C44.086 160.232 44.038 160.184 43.894 160.136L43.246 159.968C43.006 159.896 42.958 159.872 42.958 159.632V151.952C43.078 151.904 43.318 151.88 43.486 151.88C45.094 151.88 45.622 152.672 45.622 154.904V159.632C45.622 159.872 45.574 159.896 45.334 159.968L44.686 160.136C44.542 160.184 44.494 160.232 44.494 160.664C44.494 161.096 44.542 161.168 44.686 161.168C45.238 161.168 46.654 161 48.406 161C50.158 161 51.718 161.168 52.27 161.168C52.414 161.168 52.462 161.096 52.462 160.664C52.462 160.232 52.414 160.16 52.27 160.136Z" fill="white"/>
<path d="M60.553 158.576H58.393C56.665 158.576 56.233 158.336 56.233 157.808C56.233 157.448 56.449 157.136 56.905 157.016C57.481 157.184 58.057 157.256 58.609 157.256C62.233 157.256 64.825 155.528 64.825 152.912C64.825 152 64.5129 151.232 64.0089 150.632C64.7769 150.704 65.521 150.776 66.001 150.776C66.313 150.776 66.3849 150.368 66.3849 149.528C66.3849 149.216 66.337 149.168 66.001 149.168C65.353 149.168 63.817 149.216 62.161 149.288C61.297 148.928 60.337 148.736 59.497 148.736C55.873 148.736 53.281 150.392 53.281 152.984C53.281 154.808 54.529 156.032 56.017 156.704C54.025 157.64 52.729 157.976 52.729 159.368C52.729 160.952 53.569 162.056 54.889 162.656C53.233 163.16 52.081 163.4 52.081 164.384C52.081 165.752 53.713 166.52 58.081 166.52C63.649 166.52 66.2169 164.168 66.2169 161.888C66.2169 159.848 64.081 158.576 60.553 158.576ZM58.225 149.528C59.017 149.528 60.529 152.624 60.529 155.408C60.529 156.296 60.313 156.464 59.881 156.464C59.065 156.464 57.577 153.368 57.577 150.584C57.577 149.696 57.793 149.528 58.225 149.528ZM59.329 165.632C56.953 165.632 55.537 164.84 55.537 163.832C55.537 163.544 55.657 163.232 55.921 163.016C56.425 163.136 56.977 163.184 57.553 163.184H58.873C61.993 163.184 62.569 163.688 62.569 164.384C62.569 165.032 61.465 165.632 59.329 165.632Z" fill="white"/>
<path d="M76.8336 148.712C75.3696 148.712 74.0256 150.488 73.3056 152.816C73.3056 151.256 73.4016 149.312 73.4016 148.928C73.4016 148.76 72.9456 148.568 72.7776 148.568C72.7056 148.568 72.6576 148.592 72.5856 148.64C70.6656 150.008 68.7936 151.184 66.8256 151.952C66.6816 152 66.6336 152.048 66.6336 152.408C66.6336 152.792 66.6816 152.84 66.8256 152.864L67.6416 153.008C67.8816 153.056 67.9296 153.08 67.9296 153.32V159.656C67.9296 159.896 67.8816 159.92 67.6416 159.968L66.8256 160.136C66.6816 160.16 66.6336 160.208 66.6336 160.664C66.6336 161.12 66.6816 161.168 66.8256 161.168C67.3776 161.168 68.9616 161 70.7136 161C73.1856 161 74.7456 161.168 75.2976 161.168C75.4416 161.168 75.4896 161.096 75.4896 160.664C75.4896 160.232 75.4416 160.16 75.2976 160.136L73.7616 159.968C73.5216 159.944 73.4736 159.896 73.4736 159.656V153.464C73.5216 153.416 73.6656 153.392 73.7856 153.392C74.0976 153.392 74.5776 153.608 75.1536 154.016C75.6816 154.376 76.0416 154.52 76.4736 154.52C77.6016 154.52 78.9216 153.392 78.9216 151.112C78.9216 149.792 78.2736 148.712 76.8336 148.712Z" fill="white"/>
<path d="M89.1566 161.384C90.3326 161.384 91.3646 160.784 92.8046 159.344L92.9006 159.248C93.0446 159.104 93.1406 159.008 93.1406 158.888C93.1406 158.744 92.7806 158.216 92.5646 158.216C92.5166 158.216 92.4926 158.24 92.4206 158.288C91.7726 158.72 91.3886 158.672 91.3886 156.752V152.336C91.3886 150.008 89.8526 148.712 86.5886 148.712C82.9166 148.712 79.9406 151.064 79.9406 152.6C79.9406 153.488 80.6126 153.944 81.3566 153.944C82.7006 153.944 83.7086 153.128 83.9486 151.4L84.1166 150.248C84.1646 149.936 84.2606 149.864 84.5006 149.864C85.4126 149.864 85.9406 150.92 85.9406 152.648V153.416C83.6606 153.92 81.8606 154.448 80.7326 155.048C79.4846 155.72 79.0286 156.56 79.0286 158.024C79.0286 159.896 80.3006 161.384 82.1486 161.384C83.9006 161.384 85.3646 160.256 86.1326 158.336C86.7326 160.424 87.7406 161.384 89.1566 161.384ZM85.5086 158.144C84.7166 158.144 83.8046 156.968 83.8046 155.624C83.8046 154.904 84.0206 154.616 84.5006 154.616C84.7406 154.616 85.1246 154.76 85.4366 155.072C85.7246 155.36 85.9406 155.744 85.9406 156.272V157.976C85.8686 158.048 85.7486 158.144 85.5086 158.144Z" fill="white"/>
<path d="M102.331 150.368C102.571 150.368 102.667 150.296 102.667 149.648C102.667 149 102.571 148.88 102.331 148.88L99.6191 148.904C99.5951 147.848 99.5231 146.792 99.4271 146.096C99.4031 145.928 99.3311 145.904 98.9471 145.904C98.5631 145.904 98.5391 145.952 98.3951 146.096C96.8351 147.728 95.4671 148.568 92.9471 149.168C92.8031 149.192 92.7551 149.288 92.7551 149.696C92.7551 150.104 92.7791 150.152 92.9471 150.176L93.8111 150.296C94.0751 150.344 94.0991 150.368 94.0991 150.608V157.184C94.0991 159.776 95.4191 161.384 97.9391 161.384C100.171 161.384 101.851 159.872 102.451 158.36C102.547 158.12 102.139 157.736 101.875 157.736C101.755 157.736 101.587 157.88 101.275 157.88C100.243 157.88 99.6431 157.328 99.6431 155.096V150.344C100.459 150.368 101.491 150.368 102.331 150.368Z" fill="white"/>
<path d="M118.899 159.104L118.083 158.912C117.843 158.864 117.795 158.816 117.795 158.576V153.848C117.795 150.896 117.987 149.528 117.987 149.12C117.987 148.952 117.795 148.76 117.627 148.76C117.459 148.76 113.283 148.808 111.171 148.856C111.027 148.856 110.955 149 110.955 149.408C110.955 149.816 111.003 149.888 111.147 149.912L111.963 150.104C112.203 150.152 112.251 150.2 112.251 150.44V158.048C112.131 158.096 111.891 158.12 111.723 158.12C110.115 158.12 109.587 157.328 109.587 155.096V153.848C109.587 150.896 109.779 149.528 109.779 149.12C109.779 148.952 109.587 148.76 109.419 148.76C109.251 148.76 105.075 148.808 102.963 148.856C102.819 148.856 102.747 149 102.747 149.408C102.747 149.816 102.795 149.888 102.939 149.912L103.755 150.104C103.995 150.152 104.043 150.2 104.043 150.44V157.184C104.043 159.776 105.603 161.384 108.123 161.384C110.259 161.384 111.795 159.872 112.419 158.432C112.467 159.104 112.683 160.232 112.899 161.024C112.971 161.264 113.547 161.408 113.739 161.36C115.539 160.832 117.459 160.376 118.899 160.088C119.043 160.064 119.091 160.016 119.091 159.608C119.091 159.2 119.043 159.128 118.899 159.104Z" fill="white"/>
<path d="M119.958 161.168C120.51 161.168 122.094 161 123.846 161C125.598 161 127.158 161.168 127.71 161.168C127.854 161.168 127.902 161.096 127.902 160.664C127.902 160.232 127.854 160.16 127.71 160.136L126.894 159.968C126.654 159.92 126.606 159.872 126.606 159.632V147.872C126.606 144.92 126.798 143.288 126.798 142.88C126.798 142.712 126.342 142.52 126.174 142.52C126.102 142.52 126.054 142.544 125.982 142.592C124.062 143.912 121.926 145.136 119.958 145.904C119.814 145.952 119.766 146 119.766 146.36C119.766 146.744 119.814 146.792 119.958 146.816L120.774 146.96C121.014 147.008 121.062 147.032 121.062 147.272V159.632C121.062 159.872 121.014 159.92 120.774 159.968L119.958 160.136C119.814 160.16 119.766 160.232 119.766 160.664C119.766 161.096 119.814 161.168 119.958 161.168Z" fill="white"/>
<path d="M138.563 161.384C139.739 161.384 140.771 160.784 142.211 159.344L142.307 159.248C142.451 159.104 142.547 159.008 142.547 158.888C142.547 158.744 142.187 158.216 141.971 158.216C141.923 158.216 141.899 158.24 141.827 158.288C141.179 158.72 140.795 158.672 140.795 156.752V152.336C140.795 150.008 139.259 148.712 135.995 148.712C132.323 148.712 129.347 151.064 129.347 152.6C129.347 153.488 130.019 153.944 130.763 153.944C132.107 153.944 133.115 153.128 133.355 151.4L133.523 150.248C133.571 149.936 133.667 149.864 133.907 149.864C134.819 149.864 135.347 150.92 135.347 152.648V153.416C133.067 153.92 131.267 154.448 130.139 155.048C128.891 155.72 128.435 156.56 128.435 158.024C128.435 159.896 129.707 161.384 131.555 161.384C133.307 161.384 134.771 160.256 135.539 158.336C136.139 160.424 137.147 161.384 138.563 161.384ZM134.915 158.144C134.123 158.144 133.211 156.968 133.211 155.624C133.211 154.904 133.427 154.616 133.907 154.616C134.147 154.616 134.531 154.76 134.843 155.072C135.131 155.36 135.347 155.744 135.347 156.272V157.976C135.275 158.048 135.155 158.144 134.915 158.144Z" fill="white"/>
<path d="M151.737 150.368C151.977 150.368 152.073 150.296 152.073 149.648C152.073 149 151.977 148.88 151.737 148.88L149.025 148.904C149.001 147.848 148.929 146.792 148.833 146.096C148.809 145.928 148.737 145.904 148.353 145.904C147.969 145.904 147.945 145.952 147.801 146.096C146.241 147.728 144.873 148.568 142.353 149.168C142.209 149.192 142.161 149.288 142.161 149.696C142.161 150.104 142.185 150.152 142.353 150.176L143.217 150.296C143.481 150.344 143.505 150.368 143.505 150.608V157.184C143.505 159.776 144.825 161.384 147.345 161.384C149.577 161.384 151.257 159.872 151.857 158.36C151.953 158.12 151.545 157.736 151.281 157.736C151.161 157.736 150.993 157.88 150.681 157.88C149.649 157.88 149.049 157.328 149.049 155.096V150.344C149.865 150.368 150.897 150.368 151.737 150.368Z" fill="white"/>
<path d="M156.761 147.488C158.369 147.488 159.521 146.288 159.521 144.728C159.521 143.168 158.369 141.968 156.761 141.968C155.153 141.968 154.001 143.168 154.001 144.728C154.001 146.288 155.153 147.488 156.761 147.488ZM152.561 161.168C153.089 161.168 154.697 161 156.449 161C158.201 161 159.761 161.168 160.313 161.168C160.457 161.168 160.505 161.096 160.505 160.664C160.505 160.232 160.457 160.16 160.313 160.136L159.497 159.968C159.257 159.92 159.209 159.872 159.209 159.632V153.92C159.209 150.968 159.401 149.336 159.401 148.928C159.401 148.76 158.945 148.568 158.777 148.568C158.705 148.568 158.657 148.592 158.585 148.64C156.665 149.96 154.529 151.184 152.561 151.952C152.417 152 152.369 152.048 152.369 152.408C152.369 152.792 152.417 152.84 152.561 152.864L153.377 153.008C153.617 153.056 153.665 153.08 153.665 153.32V159.632C153.665 159.872 153.617 159.92 153.377 159.968L152.561 160.136C152.417 160.16 152.369 160.232 152.369 160.664C152.369 161.096 152.417 161.168 152.561 161.168Z" fill="white"/>
<path d="M161.491 155.144C161.491 159.032 164.371 161.384 168.547 161.384C172.987 161.384 176.083 159.032 176.083 154.952C176.083 151.064 173.203 148.712 169.027 148.712C164.587 148.712 161.491 151.064 161.491 155.144ZM166.723 151.184C166.723 149.912 167.131 149.6 167.611 149.6C167.851 149.6 168.067 149.672 168.355 149.96C169.387 150.992 170.851 156.392 170.851 158.912C170.851 160.184 170.443 160.496 169.963 160.496C169.723 160.496 169.507 160.424 169.219 160.136C168.187 159.104 166.723 153.704 166.723 151.184Z" fill="white"/>
<path d="M193.176 160.136L192.36 159.968C192.12 159.92 192.072 159.872 192.072 159.632V152.816C192.072 150.224 190.512 148.712 187.992 148.712C185.88 148.712 184.344 150.128 183.696 151.544C183.696 150.104 183.792 149.312 183.792 148.928C183.792 148.76 183.336 148.568 183.168 148.568C183.096 148.568 183.048 148.592 182.976 148.64C181.056 150.008 179.184 151.184 177.216 151.952C177.072 152 177.024 152.048 177.024 152.408C177.024 152.792 177.072 152.84 177.216 152.864L178.032 153.008C178.272 153.056 178.32 153.08 178.32 153.32V159.632C178.32 159.872 178.272 159.92 178.032 159.968L177.216 160.136C177.072 160.16 177.024 160.232 177.024 160.664C177.024 161.096 177.072 161.168 177.216 161.168C177.768 161.168 179.352 161 181.104 161C182.856 161 184.248 161.168 184.8 161.168C184.944 161.168 184.992 161.096 184.992 160.664C184.992 160.232 184.944 160.184 184.8 160.136L184.152 159.968C183.912 159.896 183.864 159.872 183.864 159.632V151.952C183.984 151.904 184.224 151.88 184.392 151.88C186 151.88 186.528 152.672 186.528 154.904V159.632C186.528 159.872 186.48 159.896 186.24 159.968L185.592 160.136C185.448 160.184 185.4 160.232 185.4 160.664C185.4 161.096 185.448 161.168 185.592 161.168C186.144 161.168 187.56 161 189.312 161C191.064 161 192.624 161.168 193.176 161.168C193.32 161.168 193.368 161.096 193.368 160.664C193.368 160.232 193.32 160.16 193.176 160.136Z" fill="white"/>
<path d="M194.283 156.8C194.163 157.904 194.043 159.272 194.043 160.16C194.043 160.64 194.091 160.688 194.571 160.832C195.819 161.216 196.827 161.384 198.243 161.384C202.083 161.384 204.291 159.464 204.291 156.656C204.291 154.832 203.427 153.416 200.715 152.456C199.107 151.88 198.723 151.472 198.723 150.68C198.723 149.792 199.347 149.456 200.163 149.456C200.955 149.456 201.363 149.792 201.603 150.368L202.347 152.264C202.419 152.456 202.491 152.504 202.947 152.504C203.403 152.504 203.451 152.456 203.451 152.264V149.408C203.451 148.928 203.403 148.88 202.923 148.808C202.011 148.688 201.123 148.592 200.259 148.592C196.347 148.592 194.211 150.512 194.211 152.888C194.211 154.952 194.931 156.296 197.859 157.16C199.563 157.664 200.019 158.24 200.019 159.104C200.019 159.992 199.395 160.52 198.339 160.52C197.619 160.52 197.091 160.304 196.683 159.608C196.275 158.912 195.891 158 195.411 156.8C195.339 156.608 195.267 156.56 194.811 156.56C194.379 156.56 194.307 156.608 194.283 156.8Z" fill="white"/>
<path d="M207.934 149.984C208.654 151.304 209.014 152.648 209.206 154.544C209.23 154.832 209.398 154.904 209.758 154.904C210.118 154.904 210.286 154.832 210.31 154.544C210.502 152.648 210.862 151.304 211.582 149.984C212.374 148.544 212.902 147.368 212.902 146.024C212.902 144.128 211.702 142.736 209.758 142.736C207.814 142.736 206.614 144.128 206.614 146.024C206.614 147.368 207.142 148.544 207.934 149.984ZM209.758 161.288C211.534 161.288 212.902 159.992 212.902 158.288C212.902 156.584 211.534 155.288 209.758 155.288C207.982 155.288 206.614 156.584 206.614 158.288C206.614 159.992 207.982 161.288 209.758 161.288Z" fill="white"/>
<g clip-path="url(#clip0_1928_24540)">
<path d="M138.689 121.911C138.364 121.928 138.039 121.946 137.744 121.865C136.649 121.698 135.679 121.169 135.02 120.366L117.066 97.6513C115.745 95.9802 116.198 93.633 118.088 92.4023L137.878 79.8858C138.788 79.2885 139.935 79.0655 141.03 79.2324C142.126 79.3994 143.096 79.9279 143.755 80.7313L158.389 107.044C159.592 108.528 159.102 110.877 157.211 112.075L157.106 112.146L140.79 121.249C140.195 121.636 139.483 121.868 138.689 121.911V121.911ZM140.295 82.4013C140.295 82.4013 140.043 82.4149 139.938 82.485L120.183 94.9996C119.903 95.176 119.848 95.5015 120.042 95.7492L137.996 118.464C138.153 118.681 138.59 118.722 138.836 118.58L155.186 109.442C155.43 109.268 155.485 108.942 155.292 108.727L140.658 82.414C140.658 82.414 140.514 82.4218 140.333 82.4315L140.295 82.4013Z" fill="white"/>
<path d="M102.493 91.0447L82.2135 79.6498C81.2795 79.1193 80.1461 78.9221 79.0369 79.1753C77.926 79.3963 77.0165 79.9936 76.2412 81.0677L63.2493 107.543C62.003 109.287 62.5626 111.612 64.5802 112.762L81.0372 121.104C81.7837 121.515 82.6265 121.696 83.4571 121.651C83.6738 121.64 83.9266 121.626 84.1759 121.548C85.2868 121.327 86.1964 120.73 86.8393 119.889L103.784 96.2016C105.03 94.457 104.471 92.132 102.527 91.0106L102.493 91.0447Z" fill="white"/>
<path d="M99.4198 92.7927C98.9142 92.8199 98.4378 92.7164 97.9906 92.4824L82.4157 83.7058C81.7431 83.3225 81.3457 82.6664 81.3076 81.9587L81.0055 60.1665L71.1425 47.8245C70.7158 47.299 70.7156 46.6215 71.0474 46.0553L72.7234 43.5456C72.9916 43.144 73.4472 42.8615 73.9855 42.768C74.5237 42.6745 75.038 42.8082 75.4525 43.1085L80.09 46.5048L74.5652 37.3815C74.2864 36.9126 74.2914 36.3316 74.5561 35.8657L75.8213 33.7975C76.1204 33.2975 76.6826 32.977 77.3327 32.942L79.5718 32.8217C80.1496 32.7906 80.7051 33.0188 81.0509 33.3874L85.1676 37.8762L81.2837 29.6326C81.0772 29.1598 81.12 28.609 81.3865 28.1753L83.0625 25.6656C83.4321 25.1296 84.0683 24.8373 84.794 24.8628L87.9928 25.078C88.6481 25.1396 89.2106 25.4965 89.491 25.9976L94.5621 36.113L93.931 30.4367C93.9068 29.9864 94.0632 29.5263 94.407 29.1852L96.1263 27.4798C96.6077 27.0022 97.3591 26.8328 98.0213 27.023L101.698 28.0513C102.361 28.2415 102.859 28.7631 102.928 29.3724L106.59 55.0489L110.601 48.8005C110.835 48.4331 111.254 48.1524 111.718 48.0307C112.183 47.909 112.693 47.9783 113.103 48.1821L116.904 50.1715C117.872 50.6679 118.291 51.71 117.944 52.6643C116.048 57.8311 113.753 64.9875 113.635 68.1876C113.444 72.7145 105.004 86.1694 101.354 91.7209C101.019 92.2228 100.495 92.5736 99.8514 92.7372C99.707 92.745 99.5643 92.7849 99.4198 92.7927V92.7927ZM84.9292 81.2801L98.8615 89.1449C104.446 80.5214 109.869 70.9064 110.01 68.1244C110.153 64.0518 112.942 55.9657 114.206 52.5425L112.827 51.8102L107.914 59.462C107.414 60.2632 106.386 60.6733 105.362 60.5025C104.339 60.3317 103.577 59.6307 103.455 58.7017L99.4567 30.8172L97.9862 30.4123L97.5736 30.8216L99.2444 45.7332C99.3237 46.5355 98.7822 47.2421 97.888 47.4514C96.9938 47.6608 96.1407 47.2873 95.7759 46.5649L86.5664 28.1872L85.5844 28.111L84.9466 29.0485L93.2892 46.7953C93.6179 47.5197 93.3017 48.3755 92.564 48.8022C91.7903 49.231 90.8048 49.0904 90.2268 48.444L78.7644 35.9944L78.4394 36.0119L78.1403 36.5118L87.6018 52.166C88.001 52.8543 87.8275 53.6702 87.1673 54.1896C86.5053 54.6768 85.5285 54.6971 84.8508 54.2173L74.7829 46.8223L84.104 58.5159C84.3362 58.7938 84.5496 59.3953 84.5308 59.7189L84.8192 81.2538L84.9292 81.2801Z" fill="white"/>
<path d="M122.576 92.3545C122.179 92.3759 121.777 92.3007 121.407 92.1593C120.925 91.9594 120.543 91.5928 120.302 91.1541L109.285 75.519C108.774 74.7722 109.009 73.7595 109.853 73.2947C110.697 72.8299 111.831 73.0271 112.342 73.7739L122.811 88.6319L134.505 81.1317L126.702 64.6786C126.541 64.3646 126.522 64.0108 126.649 63.6814C126.891 62.7973 134.157 55.7932 134.225 55.725L146.306 45.978L134.572 51.3834C133.794 51.7478 132.843 51.5731 132.339 50.955C131.799 50.3388 131.826 49.4985 132.411 48.9187L145.661 35.3343L145.487 34.7952L145.193 34.7142L130.85 44.8086C130.152 45.2978 129.135 45.2557 128.49 44.7096C127.845 44.1636 127.761 43.2649 128.27 42.6245L140.929 26.8136L140.549 25.8017L139.565 25.6933L125.881 41.9787C125.336 42.6209 124.369 42.8342 123.588 42.4568C122.809 42.1115 122.439 41.2926 122.724 40.5353L128.151 26.2745L127.873 25.8056L126.356 25.8871L118.624 45.7884C118.238 46.6803 117.399 47.2415 116.312 47.2354C115.297 47.2255 114.396 46.6287 114.095 45.7416C114.05 45.5827 114.007 45.4559 114.034 45.2932L113.949 30.9093L113.093 31.1489C112.567 34.1774 111.181 44.769 111.126 45.7721C111.211 46.6708 110.487 47.355 109.478 47.4415C108.43 47.4978 107.596 46.8006 107.511 45.9019C107.503 45.741 108.566 29.134 110.954 28.4249L115.161 27.1664C115.695 27.0086 116.316 27.1043 116.765 27.3705C117.216 27.6689 117.494 28.1378 117.522 28.6525L117.589 38.6499L123.351 23.8872C123.572 23.2946 124.2 22.8414 124.922 22.8026L128.78 22.4662C129.538 22.4255 130.169 22.7141 130.489 23.2776L131.718 25.244C131.957 25.6506 132.017 26.099 131.861 26.5591L129.799 31.993L137.32 23.0072C137.729 22.5336 138.367 22.2735 139.024 22.3672L142.194 22.713C142.885 22.7726 143.451 23.1938 143.664 23.7953L144.645 26.5493C144.816 27.0241 144.701 27.5787 144.397 27.9822L138.526 35.3307L143.691 31.6979C144.145 31.3831 144.755 31.2858 145.306 31.4175L147.471 31.9463C148.095 32.1063 148.553 32.5334 148.727 33.0725L149.427 35.3254C149.599 35.8323 149.448 36.3889 149.037 36.8303L141.314 44.7623L146.686 42.2798C147.145 42.0615 147.723 42.0305 148.203 42.1983C148.683 42.366 149.065 42.7326 149.233 43.1752L150.215 45.9292C150.428 46.5307 150.246 47.1857 149.691 47.6349L136.637 58.144C136.431 58.3486 132.169 62.6104 130.488 64.3461L138.371 80.9562C138.532 81.2701 138.551 81.6239 138.426 81.9855C138.276 82.5743 137.833 83.082 137.233 83.3724L123.72 92.0672C123.72 92.0672 123.438 92.2114 123.297 92.2835C123.084 92.3595 122.833 92.4053 122.616 92.4169L122.576 92.3545Z" fill="white"/>
<path d="M147.482 65.8198C147.482 65.8198 147.265 65.8315 147.157 65.8373C146.173 65.7289 145.478 64.9275 145.576 64.0512L146.582 57.1578C146.63 56.7035 146.9 56.3341 147.319 56.0535C147.704 55.807 148.205 55.6833 148.715 55.7526L154.668 56.6586L155.753 50.5674C155.923 49.6872 156.831 49.0577 157.816 49.1983C158.802 49.3389 159.461 50.1423 159.327 51.0205L157.932 58.7736C157.847 59.1976 157.578 59.5992 157.193 59.8457C156.808 60.0922 156.308 60.2159 155.831 60.1125L149.951 59.2026L149.217 64.4039C149.114 65.1837 148.385 65.7713 147.518 65.8179L147.482 65.8198Z" fill="#7FBFA9"/>
<path d="M112.522 22.5337C112.306 22.5454 112.087 22.5248 111.867 22.4722C110.911 22.201 110.391 21.2933 110.709 20.4697L116.23 5.26831C116.546 4.41252 117.571 3.93804 118.491 4.21119C119.448 4.4824 119.967 5.39003 119.649 6.21365L114.128 21.415C113.874 22.0739 113.208 22.4968 112.486 22.5357L112.522 22.5337Z" fill="#FDA649"/>
<path d="M103.553 15.3698C102.542 15.4241 101.709 14.7591 101.661 13.8584L101.163 4.594C101.114 3.69329 101.871 2.94289 102.882 2.88853C103.893 2.83417 104.726 3.49917 104.774 4.39987L105.272 13.6643C105.32 14.565 104.564 15.3154 103.553 15.3698Z" fill="#FDA649"/>
<path d="M97.5786 22.1433C96.9286 22.1783 96.2991 21.9218 95.9447 21.3924L89.5754 12.0564C89.0644 11.3096 89.3358 10.2949 90.1801 9.83017C91.0244 9.36539 92.1595 9.59473 92.6705 10.3415L99.0397 19.6775C99.5507 20.4243 99.2793 21.4389 98.435 21.9037C98.153 22.0479 97.8676 22.1278 97.5786 22.1433V22.1433Z" fill="#FDA649"/>
<path d="M67.0281 68.951C64.0306 69.1121 61.4771 66.7526 61.3113 63.6686C61.1455 60.5845 63.4314 57.9649 66.4289 57.8038C69.4263 57.6426 71.9798 60.0021 72.1456 63.0862C72.3114 66.1702 70.0255 68.7898 67.0281 68.951V68.951ZM66.6286 61.5195C65.6174 61.5739 64.8668 62.434 64.9227 63.4744C64.9787 64.5148 65.8171 65.2896 66.8283 65.2352C67.8395 65.1809 68.5901 64.3207 68.5342 63.2803C68.4782 62.2399 67.6398 61.4652 66.6286 61.5195V61.5195Z" fill="#2C745B"/>
<path d="M64.3058 35.1909C65.8017 35.1104 66.9563 33.9651 66.8847 32.6326C66.8131 31.3002 65.5424 30.2852 64.0465 30.3656C62.5506 30.446 61.396 31.5914 61.4676 32.9238C61.5392 34.2563 62.8099 35.2713 64.3058 35.1909Z" fill="#A7BFDC"/>
<path d="M146.851 21.0754C148.347 20.995 149.501 19.8496 149.43 18.5172C149.358 17.1847 148.087 16.1697 146.591 16.2502C145.095 16.3306 143.941 17.4759 144.013 18.8084C144.084 20.1408 145.355 21.1558 146.851 21.0754Z" fill="#A7BFDC"/>
</g>
<defs>
<clipPath id="clip0_1928_24540">
<rect width="100" height="120.772" fill="white" transform="translate(56.7637 5.36768) rotate(-3.07693)"/>
</clipPath>
</defs>
</svg>
