<?xml version="1.0" encoding="UTF-8"?>
<svg id="Layer_1" data-name="Layer 1" xmlns="http://www.w3.org/2000/svg" viewBox="0 0 40 40">
  <path d="M39.82,6.26v-1.28c-.02-.55-.46-.99-1.01-.99h-3.37S31.73,.29,31.73,.29C31.54,.11,31.29,0,31.02,0h-6.05c-1.79,.1-3.32,1.14-3.88,2.65-.31,.83-.31,1.77-.01,2.67,.01,.04,.03,.09,.05,.13l.22,.44s0,.03,0,.05c0,.08,0,.18,0,.28,0,.21,0,.46,0,.73,.16,3.85-1.41,6.03-2.34,7.34-.65,.9-1.31,1.39-2.92,2.58-.95,.7-2.25,1.66-4.04,3.08-1.9,1.65-2.66,3.15-3.11,4.26-.38,.94-.68,1.92-.89,2.93-.22,1.03-.32,1.94-.32,2.86,0,.96,0,1.89,0,2.81H3.08c-.08,0-.17,.01-.25,.03-1.62,.41-2.69,1.89-2.66,3.69,.02,1.59,1.37,3.21,2.88,3.46,.05,0,.11,.01,.16,.01h31.81c.55,0,1-.45,1-1,0-2.62,0-3.14,0-3.14,0-.05,0-.09,0-.14-.03-.21-.2-1.27-1.03-2.01-.45-.4-.89-.61-1.28-.72,0-.79,0-1.58,0-2.36,0-1.73-.01-3.45,0-5.22,.61-1.36,.94-2.73,.98-4.07,.05-1.4-.29-2.8-1.01-4.15-.12-.7-.06-1.25,.2-1.66,.22-.35,.54-.52,1.12-.8l.25-.12c1.7-.84,2.9-1.72,3.78-2.78,.85-1.02,.83-2.26,.8-5.56ZM2.17,36.5c-.01-.66,.26-1.43,1.05-1.69H7.71c0,.41,0,.82,0,1.23v1.96s-4.4,0-4.4,0c-.59-.15-1.13-.95-1.14-1.5ZM37.48,10.55c-.69,.84-1.68,1.56-3.12,2.26l-.23,.11c-.66,.32-1.41,.68-1.95,1.54-.56,.89-.71,1.99-.44,3.27,.02,.1,.06,.19,.1,.28,.59,1.08,.88,2.17,.84,3.26-.04,1.13-.34,2.31-.89,3.5-.06,.13-.09,.27-.09,.41-.01,1.85,0,3.65,0,5.45,0,1.07,0,2.14,0,3.22,0,.54,.43,.98,.97,1,.4,.01,.64,.04,.99,.35,.22,.2,.34,.56,.37,.73,0,.19,0,.73,0,2.07h-5.8v-11.99c0-.55-.45-1-1-1s-1,.45-1,1v8.02c-.95-.81-1.98-1.14-2.78-1.27-.21-.99-.76-2.49-2.2-3.63-1.56-1.24-3.26-1.37-4.12-1.33-.55,.02-.98,.49-.96,1.04,.02,.55,.48,.97,1.04,.96,.48-.02,1.7,.03,2.8,.9,1.35,1.07,1.54,2.61,1.57,3.06,.03,.52,.47,.93,.99,.94,.42,0,1.49,.1,2.41,.91,.93,.82,1.17,1.88,1.23,2.4H9.71v-1.97c0-1.96,0-3.93,0-6.03,0-.78,.09-1.56,.28-2.45,.19-.89,.46-1.76,.79-2.59,.37-.91,.99-2.13,2.54-3.48,1.73-1.37,2.96-2.28,3.95-3.01,1.69-1.24,2.53-1.87,3.36-3.03,.79-1.1,2.11-2.95,2.57-5.86l.93,1.86c.15,.31,.45,.51,.79,.55,.35,.04,.67-.1,.89-.37l4-5c.35-.43,.28-1.06-.16-1.41-.43-.34-1.06-.28-1.41,.16l-3.02,3.78-2.27-4.53c-.09-.28-.18-.77,0-1.27,.29-.77,1.12-1.3,2.06-1.35h5.59l3.71,3.71c.19,.19,.44,.29,.71,.29h2.79s0,.29,0,.29c.03,2.69,.04,3.81-.34,4.27Z"/>
</svg>