<?xml version="1.0" encoding="UTF-8"?><svg xmlns="http://www.w3.org/2000/svg" viewBox="0 0 40 40"><defs><style>.d{fill:none;}.e{opacity:.5;}</style></defs><g id="a"/><g id="b"><g id="c"><g><g class="e"><rect class="d" width="40" height="40"/></g><path d="M13.25,18.62c-.51,0-.94-.39-.99-.9,0-.03,0-.09,0-.19-.11-1.41-2.63-1.53-2.66-1.53-.55-.02-.98-.48-.96-1.03,.02-.54,.46-.97,1-.97,.01,0,.02,0,.04,0,.98,.03,2.51,.37,3.53,1.27,.77-.76,1.92-1.14,3.43-1.14,.55,0,1,.45,1,1s-.45,1-1,1c-.98,0-1.69,.21-2.06,.6-.27,.28-.31,.61-.32,.75,0,.05,0,.1,0,.15,0,.53-.42,.97-.95,1-.02,0-.03,0-.05,0Z"/><path d="M8.25,10.62c-.51,0-.94-.39-.99-.9,0-.03,0-.09,0-.19-.11-1.41-2.63-1.53-2.66-1.53-.55-.02-.98-.48-.96-1.03,.02-.54,.46-.97,1-.97,.01,0,.02,0,.04,0,.98,.03,2.51,.37,3.53,1.27,.77-.76,1.92-1.14,3.43-1.14,.55,0,1,.45,1,1s-.45,1-1,1c-.98,0-1.69,.21-2.06,.6-.27,.28-.31,.61-.32,.75,0,.05,0,.1,0,.15,0,.53-.42,.97-.95,1-.02,0-.03,0-.05,0Z"/><path d="M23,7.62c-.51,0-.94-.39-.99-.9,0-.03,0-.09,0-.19-.11-1.41-2.63-1.53-2.66-1.53-.55-.02-.98-.48-.96-1.03,.02-.54,.46-.97,1-.97,.01,0,.02,0,.04,0,.98,.03,2.51,.37,3.53,1.27,.77-.76,1.92-1.14,3.43-1.14,.55,0,1,.45,1,1s-.45,1-1,1c-.98,0-1.69,.21-2.06,.6-.27,.28-.31,.61-.32,.75,0,.05,0,.1,0,.15,0,.53-.42,.97-.95,1-.02,0-.03,0-.05,0Z"/><path d="M38,23h-1.23c.15-.64,.23-1.31,.23-2,0-4.97-4.03-9-9-9s-9,4.03-9,9c0,.69,.08,1.36,.23,2H2c-.55,0-1,.45-1,1s.45,1,1,1H38c.55,0,1-.45,1-1s-.45-1-1-1Zm-16.82,0c-.11-.52-.18-1.06-.18-1.61,0-4,3.13-7.25,7-7.25s7,3.24,7,7.25c0,.55-.07,1.09-.18,1.61h-13.64Z"/><path d="M9,31H5c-.55,0-1-.45-1-1s.45-1,1-1h4c.55,0,1,.45,1,1s-.45,1-1,1Z"/><path d="M22,31h-4c-.55,0-1-.45-1-1s.45-1,1-1h4c.55,0,1,.45,1,1s-.45,1-1,1Z"/><path d="M35,31h-4c-.55,0-1-.45-1-1s.45-1,1-1h4c.55,0,1,.45,1,1s-.45,1-1,1Z"/><path d="M28,37h-4c-.55,0-1-.45-1-1s.45-1,1-1h4c.55,0,1,.45,1,1s-.45,1-1,1Z"/><path d="M15,37h-4c-.55,0-1-.45-1-1s.45-1,1-1h4c.55,0,1,.45,1,1s-.45,1-1,1Z"/></g></g></g></svg>