<svg width="20" height="20" viewBox="0 0 20 20" fill="none" xmlns="http://www.w3.org/2000/svg">
<path d="M10 10.5C10.3283 10.5 10.6534 10.4353 10.9567 10.3097C11.26 10.1841 11.5356 9.99991 11.7678 9.76777C11.9999 9.53562 12.1841 9.26002 12.3097 8.95671C12.4353 8.65339 12.5 8.3283 12.5 8C12.5 7.33696 12.2366 6.70107 11.7678 6.23223C11.2989 5.76339 10.663 5.5 10 5.5C9.33696 5.5 8.70107 5.76339 8.23223 6.23223C7.76339 6.70107 7.5 7.33696 7.5 8C7.5 8.3283 7.56466 8.65339 7.6903 8.95671C7.81594 9.26002 8.00009 9.53562 8.23223 9.76777C8.70107 10.2366 9.33696 10.5 10 10.5ZM10 1C13.86 1 17 4.13 17 8C17 13.25 10.5 19 10 19C9.5 19 3 13.25 3 8C3 6.14348 3.7375 4.36301 5.05025 3.05025C6.36301 1.7375 8.14348 1 10 1Z" fill="#2A4992"/>
</svg>
