<?xml version="1.0" encoding="UTF-8"?>
<svg id="Layer_1" data-name="Layer 1" xmlns="http://www.w3.org/2000/svg" viewBox="0 0 40 40">
  <path d="M14.91,26.99c-1.29-.72-2.35-1.13-3.37-1.52-1.07-.41-2.08-.8-3.29-1.53-1.72-1.05-3.69-2.45-6.35-5.62-.27-.32-.71-.44-1.11-.3-.4,.14-.66,.52-.66,.94v9.39c0,.45,.08,.87,.23,1.25,.28,.71,.73,1.34,1.3,1.84,1.16,1,2.31,1.15,2.89,1.15h.44l-2.9,5.9c-.24,.5-.04,1.09,.46,1.34,.14,.07,.29,.1,.44,.1,.37,0,.72-.21,.9-.56l3.34-6.78h2.54l3.34,6.78c.17,.35,.53,.56,.9,.56,.15,0,.3-.03,.44-.1,.5-.24,.7-.84,.46-1.34l-2.9-5.9h1.84c.78,0,2.12-.72,2.58-2.07,.51-1.48-.37-2.89-1.51-3.53Zm-.38,2.88c-.16,.46-.64,.7-.69,.72H4.56c-.3,0-.91-.09-1.58-.66-.33-.29-.59-.65-.75-1.06-.06-.15-.09-.32-.09-.51v-6.78c2,2.07,3.61,3.19,5.07,4.08,1.36,.83,2.51,1.27,3.62,1.69,1,.38,1.95,.75,3.11,1.39,.21,.12,.78,.59,.6,1.13Z"/>
  <path d="M39.74,9.54c-1.27-1.79-4.6-5.38-9.07-7.47C26.06-.09,21.97,.04,20.01,.1h0s-.16,0-.16,0c-2.38-.06-5.99-.15-10.52,1.97C4.86,4.16,1.52,7.75,.26,9.54c-.18,.25-.23,.57-.14,.86,.09,.29,.31,.53,.59,.64,1.42,.56,3.84,1.18,6.13,1.18,.1,0,.2,0,.3,0,2.72-.07,4.97-.67,6.52-1.18,1.6,.67,3.4,1.04,5.34,1.14v6.7H10.89c-1.53,.11-2.73,1.42-2.66,2.94,.07,1.43,1.21,2.58,2.72,2.68h8.04v14.31c0,.55,.45,1,1,1s1-.45,1-1v-14.31h8.11c1.45-.1,2.59-1.25,2.66-2.68,.07-1.52-1.12-2.83-2.72-2.94h-8.04v-6.7c1.94-.1,3.74-.47,5.34-1.14,1.55,.5,3.8,1.11,6.52,1.18,.1,0,.2,0,.3,0,2.29,0,4.71-.62,6.13-1.18,.29-.11,.5-.35,.59-.64,.09-.29,.04-.61-.14-.86ZM19.8,2.09h.18s.06,0,.09-.01h0c.4,0,.92-.01,1.5,0,.04,.07,.07,.14,.12,.19,.97,1.02,1.77,2.17,2.38,3.43,.56,1.14,.94,2.36,1.16,3.61-1.55,.59-3.3,.91-5.23,.91,0,0,0,0,0,0s0,0,0,0c-1.93,0-3.68-.32-5.23-.91,.22-1.25,.6-2.47,1.16-3.61,.61-1.26,1.42-2.42,2.38-3.43,.05-.06,.08-.13,.12-.19,.48,0,.94,0,1.37,.02ZM7.09,10.22c-1.54,.04-3.15-.28-4.35-.61,1.49-1.74,4.12-4.18,7.44-5.73,2.09-.98,3.93-1.43,5.55-1.64-.61,.81-1.16,1.67-1.6,2.59-.68,1.39-1.14,2.88-1.38,4.41-1.41,.44-3.36,.93-5.66,.99Zm22.68,11.51c-.02,.4-.37,.74-.73,.77H11.02c-.42-.03-.77-.36-.79-.77-.02-.43,.34-.82,.73-.85h9.04s0,0,0,0,0,0,0,0h8.98c.45,.03,.81,.42,.79,.85Zm3.14-11.51c-2.3-.06-4.25-.55-5.66-.99-.24-1.53-.7-3.02-1.38-4.41-.44-.9-.97-1.75-1.58-2.55,1.64,.22,3.53,.67,5.53,1.61,3.32,1.55,5.94,4,7.44,5.74-1.2,.33-2.82,.65-4.35,.61Z"/>
  <path d="M39.2,18.02c-.39-.14-.84-.03-1.11,.3-2.66,3.17-4.62,4.57-6.35,5.62-1.21,.74-2.22,1.12-3.29,1.53-1.02,.39-2.08,.8-3.37,1.52-1.14,.64-2.02,2.05-1.51,3.53,.47,1.35,1.8,2.07,2.58,2.07h1.84l-2.9,5.9c-.24,.5-.04,1.09,.46,1.34,.14,.07,.29,.1,.44,.1,.37,0,.72-.21,.9-.56l3.34-6.78h2.54l3.34,6.78c.17,.35,.53,.56,.9,.56,.15,0,.3-.03,.44-.1,.5-.24,.7-.84,.46-1.34l-2.9-5.9h.44c.58,0,1.73-.15,2.89-1.15,.57-.49,1.02-1.13,1.3-1.84,.15-.38,.23-.81,.23-1.25v-9.39c0-.42-.26-.8-.66-.94Zm-1.34,10.33c0,.19-.03,.36-.09,.51-.17,.42-.42,.78-.75,1.06-.67,.58-1.27,.66-1.58,.66h-9.21c-.12-.02-.61-.26-.77-.72-.19-.55,.38-1.01,.6-1.13,1.16-.65,2.1-1.01,3.11-1.39,1.11-.42,2.25-.86,3.62-1.69,1.46-.89,3.08-2.01,5.07-4.08v6.78Z"/>
</svg>