<svg width="30" height="30" viewBox="0 0 30 30" fill="none" xmlns="http://www.w3.org/2000/svg">
<path d="M4.73809 26.6328H0.789681C0.355357 26.6328 0 26.9882 0 27.4225C0 27.8568 0.355357 28.2122 0.789681 28.2122H4.73809C5.17241 28.2122 5.52777 27.8568 5.52777 27.4225C5.52777 26.9882 5.17241 26.6328 4.73809 26.6328Z" fill="#2A4992"/>
<path d="M9.29456 3.92972C8.51277 4.12714 8.01527 4.54567 7.7152 4.91682C6.52278 6.40142 6.98869 8.73888 7.04397 8.99947C7.12293 9.36273 7.4467 9.62332 7.81785 9.62332C7.83365 9.62332 7.84944 9.62332 7.86523 9.62332L13.4009 9.30745C13.7957 9.28376 14.1116 8.97578 14.1432 8.58094C14.1432 8.48618 14.309 6.30666 13.0219 4.91682C12.477 4.32456 11.7663 3.985 10.9134 3.86654C10.6923 2.54778 9.48408 1 7.39143 1C6.54647 1 5.32246 1.11056 4.41433 2.04238C3.59306 2.89524 3.21401 4.23769 3.27718 6.16452C3.32457 7.73598 3.27718 25.3064 3.27718 25.4801C3.27718 25.9145 3.63254 26.2698 4.06687 26.2698C4.50119 26.2698 4.85655 25.9145 4.85655 25.4801C4.85655 24.7536 4.90393 7.7044 4.85655 6.10924C4.80917 4.65623 5.04607 3.65333 5.55147 3.13214C5.93051 2.7452 6.49909 2.57147 7.39143 2.57147C8.52857 2.57147 9.10503 3.35325 9.29456 3.92972V3.92972ZM12.5401 7.77547L8.49698 8.00448C8.4575 7.34904 8.50488 6.44091 8.9392 5.91182C9.22349 5.56436 9.65781 5.39063 10.2738 5.39063C10.9608 5.39063 11.482 5.58805 11.8531 5.98289C12.3269 6.48829 12.4928 7.23059 12.5401 7.77547V7.77547Z" fill="#2A4992"/>
<path d="M28.01 18.6333V16.0905C28.01 13.8794 26.7228 12.5527 24.5591 12.5527H11.711C9.55515 12.5527 8.26007 13.6583 8.26007 15.514V18.6254C7.14662 18.6965 6.26218 19.6125 6.26218 20.7338V25.851C6.26218 27.0197 7.21769 27.9752 8.38642 27.9752H27.8758C29.0445 27.9752 30 27.0197 30 25.851V20.7338C30 19.6046 29.1156 18.6886 28.0021 18.6254L28.01 18.6333ZM26.4306 16.0905V18.6175H26.1148C24.946 18.6175 23.9905 19.573 23.9905 20.7417V22.7396H18.9208V14.1321H24.5591C25.4277 14.1321 26.4306 14.3532 26.4306 16.0905V16.0905ZM11.7031 14.1321H17.3414V22.7396H14.2064C13.772 22.7396 13.4167 23.095 13.4167 23.5293C13.4167 23.9636 13.772 24.319 14.2064 24.319H23.9905V25.8589C23.9905 26.0484 24.0221 26.23 24.0695 26.4037H12.1927C12.2401 26.23 12.2717 26.0484 12.2717 25.8589V20.7417C12.2717 19.573 11.3161 18.6175 10.1474 18.6175H9.83154V15.514C9.83154 14.8665 10.0448 14.1321 11.7031 14.1321V14.1321ZM7.84154 25.8589V20.7417C7.84154 20.4417 8.08634 20.1969 8.38642 20.1969H10.1474C10.4475 20.1969 10.6923 20.4417 10.6923 20.7417V25.8589C10.6923 26.1589 10.4475 26.4037 10.1474 26.4037H8.38642C8.08634 26.4037 7.84154 26.1589 7.84154 25.8589ZM28.4285 25.8589C28.4285 26.1589 28.1837 26.4037 27.8837 26.4037H26.1227C25.8226 26.4037 25.5778 26.1589 25.5778 25.8589V20.7417C25.5778 20.4417 25.8226 20.1969 26.1227 20.1969H27.8837C28.1837 20.1969 28.4285 20.4417 28.4285 20.7417V25.8589Z" fill="#2A4992"/>
</svg>
