<svg width="60" height="24" viewBox="0 0 60 24" fill="none" xmlns="http://www.w3.org/2000/svg">
<g clip-path="url(#clip0_1496_21821)">
<path d="M7.49314 4.13081C8.63383 4.13081 9.55854 3.2061 9.55854 2.0654C9.55854 0.924713 8.63383 0 7.49314 0C6.35245 0 5.42773 0.924713 5.42773 2.0654C5.42773 3.2061 6.35245 4.13081 7.49314 4.13081Z" fill="#365895"/>
<path d="M54.5844 23.5456C55.7251 23.5456 56.6499 22.6209 56.6499 21.4802C56.6499 20.3395 55.7251 19.4148 54.5844 19.4148C53.4438 19.4148 52.519 20.3395 52.519 21.4802C52.519 22.6209 53.4438 23.5456 54.5844 23.5456Z" fill="#365895"/>
<path d="M57.2531 17.7294H53.8823L55.7577 8.67468H59.1285L57.2531 17.7294Z" fill="#365895"/>
<path d="M28.4447 13.1608C27.6846 12.7725 26.7841 12.5825 25.7348 12.5825C24.5039 12.5825 23.4133 12.8552 22.4715 13.3922C21.5297 13.9292 20.7861 14.6644 20.2491 15.5897C19.7121 16.5151 19.4478 17.5725 19.4478 18.7539C19.4478 19.7123 19.6708 20.5467 20.1252 21.2572C20.5796 21.9677 21.2075 22.5212 22.0336 22.9095C22.8515 23.3061 23.8099 23.4961 24.9087 23.4961C25.7183 23.4961 26.5032 23.3805 27.2798 23.1491C28.0564 22.9178 28.7503 22.5626 29.37 22.0751L28.0811 20.0675C27.7259 20.3732 27.2963 20.6046 26.7923 20.778C26.2884 20.9515 25.7679 21.0342 25.2226 21.0342C24.2808 21.0342 23.5868 20.8359 23.1324 20.4311C22.7276 20.0758 22.5128 19.5471 22.4632 18.8613H30.634C30.6836 18.6135 30.7331 18.3491 30.7744 18.0765C30.8157 17.8039 30.8323 17.523 30.8323 17.2503C30.8323 16.3085 30.6257 15.4823 30.2044 14.7884C29.783 14.0944 29.1965 13.5491 28.4364 13.1608H28.4447ZM23.8842 15.3667C24.3552 15.0445 24.9252 14.8875 25.6027 14.8875C26.1479 14.8875 26.6023 14.9949 26.9823 15.2097C27.3624 15.4245 27.635 15.7385 27.8168 16.135C27.9407 16.3994 27.982 16.7216 27.9655 17.0686H22.7028C22.7441 16.9447 22.7689 16.8125 22.8185 16.6968C23.0663 16.135 23.4216 15.6889 23.8925 15.3667H23.8842Z" fill="#365895"/>
<path d="M37.7141 13.0947C37.2432 13.3012 36.8384 13.6234 36.4831 14.0283L36.7475 12.7395H33.7899L31.6914 23.3391H34.7895L35.8222 18.2334C36.0205 17.2338 36.4088 16.5067 36.9788 16.0441C37.5572 15.5814 38.3007 15.3584 39.2095 15.3584C39.3251 15.3584 39.4408 15.3584 39.5565 15.3749C39.6721 15.3914 39.7878 15.408 39.92 15.4327L40.4735 12.5742C39.3995 12.5742 38.4825 12.7477 37.7141 13.0864V13.0947Z" fill="#365895"/>
<path d="M51.0403 14.7884C50.6272 14.0944 50.0324 13.5491 49.2723 13.1608C48.5122 12.7725 47.6117 12.5825 46.5625 12.5825C45.3315 12.5825 44.241 12.8552 43.2991 13.3922C42.3573 13.9292 41.6138 14.6644 41.0768 15.5897C40.5398 16.5151 40.2754 17.5725 40.2754 18.7539C40.2754 19.7123 40.4985 20.5467 40.9528 21.2572C41.4072 21.9677 42.0351 22.5212 42.8613 22.9095C43.6792 23.3061 44.6375 23.4961 45.7363 23.4961C46.546 23.4961 47.3308 23.3805 48.1074 23.1491C48.884 22.9178 49.578 22.5626 50.1976 22.0751L48.9088 20.0675C48.5535 20.3732 48.1239 20.6046 47.62 20.778C47.116 20.9515 46.5955 21.0342 46.0503 21.0342C45.1084 21.0342 44.4145 20.8359 43.9601 20.4311C43.5553 20.0758 43.3405 19.5471 43.2909 18.8613H51.4616C51.5112 18.6135 51.5608 18.3491 51.6021 18.0765C51.6434 17.8039 51.6599 17.523 51.6599 17.2503C51.6599 16.3085 51.4534 15.4823 51.032 14.7884H51.0403ZM44.7119 15.3667C45.1828 15.0445 45.7528 14.8875 46.4303 14.8875C46.9756 14.8875 47.4299 14.9949 47.81 15.2097C48.19 15.4245 48.4627 15.7385 48.6444 16.135C48.7683 16.3994 48.8096 16.7216 48.7931 17.0686H43.5305C43.5718 16.9447 43.5966 16.8125 43.6461 16.6968C43.894 16.135 44.2492 15.6889 44.7201 15.3667H44.7119Z" fill="#365895"/>
<path d="M1.76799 24L0 22.2651C2.56936 19.6544 4.95697 17.0189 6.9728 14.6148C8.05508 9.23648 9.77349 3.44509 12.2107 2.55283C12.7477 2.35455 13.8217 2.18106 14.9453 3.23028C15.2675 3.5277 15.6558 4.07297 15.6805 4.96522C15.7136 6.41927 14.5322 8.66643 12.8386 11.1119C12.8633 11.1036 12.8799 11.0953 12.9046 11.0871C13.9373 10.7153 14.9866 10.8475 15.9284 11.4671L16.6389 11.938L16.4571 12.7725C15.6971 16.2506 15.474 19.9601 15.9449 20.8688C16.1432 20.7945 16.5976 20.5466 17.3742 19.7783L19.1091 21.5463C18.473 22.1742 16.5232 24.0826 14.7635 23.1077C12.599 21.9098 13.1194 16.9363 13.7969 13.4003L13.7473 13.4169C11.748 14.1356 9.22823 19.7453 8.06334 23.5043L5.65095 22.9921C5.75835 22.1163 5.92358 20.8441 6.14664 19.3487C4.1969 21.5132 2.51979 23.2482 1.77625 24.0083L1.76799 24ZM13.0286 4.87435C12.3511 5.06436 11.5002 6.98106 10.6575 9.91393C12.3842 7.5098 13.3508 5.71703 13.2021 4.99001C13.0864 4.89087 13.0203 4.87435 13.0203 4.87435H13.0286Z" fill="#365895"/>
</g>
<defs>
<clipPath id="clip0_1496_21821">
<rect width="59.1284" height="24" fill="white"/>
</clipPath>
</defs>
</svg>
