<?xml version="1.0" encoding="UTF-8"?><svg id="a" xmlns="http://www.w3.org/2000/svg" viewBox="0 0 40 40"><defs><style>.b{fill:none;}.c{opacity:.5;}</style></defs><g class="c"><rect class="b" y="0" width="40" height="40"/></g><circle cx="12.5" cy="17.35" r="1"/><circle cx="9.5" cy="18.35" r="1"/><circle cx="11.5" cy="20.35" r="1"/><circle cx="8.5" cy="21.35" r="1"/><circle cx="10.5" cy="23.35" r="1"/><path d="M39.66,34l-7.15-7.16c.28-1.2,.43-2.44,.43-3.68,0-8.28-6.24-15.12-14.3-16.18-.08-.47-.11-1.23,.28-1.98,.53-1.03,1.69-1.81,3.46-2.31,.62-.18,.99-.82,.81-1.44-.18-.62-.83-.98-1.45-.8-2.38,.68-4.01,1.83-4.86,3.41-.23-.78-.61-1.46-1.16-2.03C13.31-.64,8.81,.1,8.62,.13l-.78,.13-.17,.76c-.44,1.98-.03,3.72,.33,4.73-2.12,.78-3.96,2.5-5.49,5.16-.16,.28-.2,.62-.1,.93s.33,.57,.63,.7c.11,.05,.35,.16,.69,.3C1.35,15.74,0,19.38,0,23.16,0,32.17,7.39,39.49,16.47,39.49c2.58,0,5.12-.6,7.41-1.75,2.32,1.65,4.53,2.25,6.54,2.25,5.39,0,9.24-4.35,9.3-4.41,.4-.46,.37-1.15-.06-1.58Zm-18.11-2.77l7.98-2.35-1.28,8.43c-1.26-.36-2.59-1.04-3.96-2.21-1.43-1.22-2.29-2.54-2.74-3.87Zm2.11-9.93l5.31,5.31-7.83,2.31c-.11-3.16,1.51-6.11,2.52-7.62Zm6.38,6.4h0ZM9.85,2.35c1.13-.06,3.11,.01,4.16,1.1,.6,.62,.82,1.56,.7,2.79-1.14-.55-2.67-1.04-4.39-.97-.2-.49-.57-1.6-.48-2.92Zm-.11,5.32c2.18-.39,4.18,.72,5.05,1.3-.17,1.21-.65,2.04-1.46,2.53-2.03,1.21-5.8,.26-8.07-.57,1.32-1.88,2.82-2.97,4.48-3.26ZM2.35,23.16c0-3.52,1.36-6.91,3.75-9.49,1.36,.4,3.01,.75,4.63,.75,1.36,0,2.7-.25,3.82-.91,1.47-.88,2.34-2.33,2.59-4.32,7.47,.35,13.45,6.47,13.45,13.97,0,.56-.04,1.11-.1,1.66l-6.12-6.13c-.23-.23-.55-.36-.89-.34-.33,.01-.64,.17-.85,.42-2.91,3.48-6.56,11.37-.7,17.31-1.72,.71-3.57,1.09-5.45,1.09-7.78,0-14.12-6.28-14.12-14Zm28.23,14.48l1.24-8.17,5.34,5.35c-1.16,1.05-3.56,2.78-6.59,2.82Z"/></svg>