<?xml version="1.0" encoding="UTF-8"?><svg id="a" xmlns="http://www.w3.org/2000/svg" viewBox="0 0 40 40"><defs><style>.b{fill:none;}.c{opacity:.5;}</style></defs><g class="c"><rect class="b" x="2.38" width="38.62" height="39.88"/></g><g><path d="M34.67,3.04c-1.12-.09-11-.77-12.53,3.66-.76,2.21,.26,4,1.15,5.59,.98,1.73,1.54,2.86,.78,4.28-.55,1.03-2.93,1.96-5.67,3.04-2.02,.79-4.32,1.7-6.64,2.9v-1.04c2.55-.61,3.95-2.11,4.16-4.48,.22-2.5-1.55-16.41-5.31-16.84-.75-.09-1.45,.11-2.03,.56-1.52,1.19-1.68,3.89-1.7,4.42-.02,.58,.48,1.07,1.11,1.09,.64-.02,1.16-.44,1.18-1.02,.03-.9,.34-2.44,.9-2.88,.06-.04,.1-.07,.16-.07,1.39,1.08,3.71,10.97,3.39,14.58-.1,1.11-.5,1.96-1.87,2.44V10.82c0-.58-.51-1.06-1.15-1.06s-1.15,.47-1.15,1.06v8.68c-.57-.13-1.01-.41-1.27-.61-.72-.56-1.17-1.38-1.17-2.13,0-3.2,1.12-8.59,1.13-8.65,.12-.57-.29-1.13-.91-1.24-.63-.1-1.22,.27-1.34,.84-.05,.23-1.17,5.64-1.17,9.04,0,1.38,.74,2.78,1.98,3.74,.81,.63,1.77,1.01,2.75,1.13v2.17c-3.13,1.93-6.13,4.54-8.33,8.3-.3,.51-.09,1.15,.47,1.43,.17,.09,.36,.13,.54,.13,.41,0,.8-.2,1.01-.55,3.97-6.78,11.01-9.54,16.14-11.56,3.3-1.29,5.9-2.32,6.83-4.05,1.31-2.45,.19-4.43-.8-6.18-.79-1.4-1.47-2.61-1-3.98,.76-2.22,7.16-2.44,10.14-2.2,.63,.05,1.19-.38,1.24-.96,.06-.58-.41-1.09-1.04-1.15Z"/><path d="M34.65,12c-1.11-.94-2.38-2-2.38-2.62,0-.57,.21-.79,.36-.9,.65-.47,2.17-.33,2.81-.19,.61,.14,1.24-.2,1.39-.77,.15-.57-.22-1.14-.84-1.28-.31-.07-3.06-.66-4.77,.57-.57,.41-1.25,1.19-1.25,2.57,0,1.56,1.45,2.77,3.12,4.18,2.48,2.09,5.02,4.24,3.97,7.67-.86-2.82-2.03-5.08-3.51-5.25-.75-.09-1.45,.11-2.03,.56-1.52,1.19-1.68,3.89-1.7,4.42-.02,.58,.48,1.07,1.11,1.09,.65-.02,1.16-.44,1.18-1.02,.03-.9,.34-2.44,.9-2.88,.06-.04,.1-.07,.16-.07,1.39,1.08,3.71,10.97,3.39,14.58-.1,1.11-.5,1.96-1.87,2.44v-8.43c0-.58-.51-1.06-1.15-1.06s-1.15,.47-1.15,1.06v8.69c-.57-.13-1.01-.41-1.27-.61-.72-.56-1.17-1.38-1.17-2.13,0-3.2,1.12-8.59,1.13-8.65,.12-.57-.29-1.13-.91-1.24-.62-.1-1.22,.27-1.34,.84-.05,.23-1.17,5.64-1.17,9.04,0,1.38,.74,2.78,1.98,3.74,.81,.63,1.77,1.01,2.75,1.13v1.46c0,.58,.51,1.06,1.15,1.06s1.15-.47,1.15-1.06v-1.64c2.55-.61,3.95-2.11,4.16-4.48,.1-1.14-.22-4.69-.95-8.23,4.19-6.31-.29-10.09-3.27-12.59Z"/></g></svg>