<?xml version="1.0" encoding="UTF-8"?><svg id="a" xmlns="http://www.w3.org/2000/svg" viewBox="0 0 40 40"><defs><style>.b{fill:none;}.c{opacity:.5;}</style></defs><g class="c"><rect class="b" x="-.25" y="-.64" width="40" height="40"/></g><g><path d="M38.56,39.14H7.6c-.32,0-.63-.13-.86-.36s-.34-.54-.33-.86l.3-7.64c.02-.63,.55-1.13,1.19-1.13h6.55v-6.46c0-.65,.53-1.17,1.19-1.17h6.7v-7.05c0-.65,.53-1.17,1.19-1.17h6.1V7.86c0-.65,.53-1.17,1.19-1.17h7.74c.66,0,1.19,.53,1.19,1.17v30.1c0,.65-.53,1.17-1.19,1.17Zm-29.72-2.35h28.53V9.04h-5.36v5.43c0,.65-.53,1.17-1.19,1.17h-6.1v7.05c0,.65-.53,1.17-1.19,1.17h-6.7v6.46c0,.65-.53,1.17-1.19,1.17h-6.59l-.21,5.29Z"/><path d="M20.85,.14h-5.3c-.66,0-1.19,.53-1.19,1.17s.53,1.17,1.19,1.17h2.66l-5.2,5.13c-.47,.46-.47,1.2,0,1.66,.23,.23,.54,.34,.84,.34s.61-.11,.84-.34l4.96-4.9v2.26c0,.65,.53,1.17,1.19,1.17s1.19-.53,1.19-1.17V1.31c0-.65-.53-1.17-1.19-1.17Z"/><path d="M9.78,12.23c-.47-.46-1.22-.46-1.68,0l-4.96,4.9v-2.26c0-.65-.53-1.17-1.19-1.17s-1.19,.53-1.19,1.17v5.33c0,.65,.53,1.17,1.19,1.17H7.24c.66,0,1.19-.53,1.19-1.17s-.53-1.17-1.19-1.17h-2.66l5.2-5.13c.47-.46,.47-1.2,0-1.66Z"/></g></svg>