<svg width="30" height="30" viewBox="0 0 30 30" fill="none" xmlns="http://www.w3.org/2000/svg">
<path d="M30 19.0909V10.8C29.9182 8.10909 26.3636 6.27273 23.7182 5.27273C23.6455 4.84545 23.5182 4.43636 23.3364 4.03636C24.3 3.55455 25.4545 2.53636 25.4545 0.909091C25.4545 0.409091 25.0455 0 24.5455 0C24.0455 0 23.6364 0.409091 23.6364 0.909091C23.6364 1.84545 22.7 2.33636 22.3455 2.49091L22.1636 2.25455C21.1182 0.872727 19.4727 0.109091 17.7364 0.218182C16.0091 0.327273 14.4636 1.29091 13.6091 2.79091L13.0909 3.69091C5.5 4.14546 0 7.17273 0 10.9091C0 11.9273 0.345455 12.8727 0.972727 13.7364C0.336364 14.5636 0 15.4455 0 16.3636C0 17.3727 0.345454 18.3182 0.981818 19.1636C0.336364 20 0 20.8909 0 21.8182C0 25.9 6.59091 29.0909 15 29.0909C23.4091 29.0909 30 25.9 30 21.8182V19.3182C30 19.2455 30 19.1727 30 19.0909V19.0909ZM12.8727 7.73636C13.0364 8 13.3091 8.18182 13.6364 8.18182C14.1364 8.18182 14.5455 7.77273 14.5455 7.27273C14.5455 6.77273 14.1455 6.38182 13.6545 6.36364L15.1818 3.69091C15.7455 2.70909 16.7182 2.1 17.8455 2.02727C17.9182 2.02727 17.9909 2.02727 18.0636 2.02727C19.1091 2.02727 20.0636 2.5 20.7 3.34545L21.2636 4.09091C21.9818 5.04545 22.1636 6.23636 21.7636 7.36364C21.3636 8.49091 20.4727 9.3 19.3091 9.58182L13.4 11.0364C12.9 11.1545 12.4182 10.9909 12.1 10.5727C11.7818 10.1545 11.7545 9.64545 12.0182 9.2L12.8545 7.73636H12.8727ZM15 27.2727C7.23636 27.2727 1.81818 24.4 1.81818 21.8182C1.81818 21.3727 1.97273 20.9273 2.27273 20.4818C4.43636 22.2 8 23.3364 12.3364 23.5818C12.6455 25.2636 14.4091 26.4727 16.0182 26.4727C17.6273 26.4727 19.4909 25.1636 19.6273 23.3909C20.1455 23.3455 22.1636 23.1364 23.9545 22.6455C23.9909 22.6909 24.0182 22.7364 24.0545 22.7727C24.6091 23.3455 25.3818 23.6273 26.3545 23.6273C26.7 23.6273 27.0636 23.5909 27.4273 23.5C25.7 25.5 21.0727 27.2636 14.9909 27.2636L15 27.2727ZM1.81818 16.3636C1.81818 15.9273 1.96364 15.4818 2.25455 15.0455C4.4 16.7727 7.92727 17.9273 12.2727 18.1545V21.7455C5.69091 21.3455 1.81818 18.8091 1.81818 16.3545V16.3636ZM23.2364 20.9636C21.8727 21.3182 20.3545 21.5 19.7 21.5636C19.7 21.4091 19.7091 21.2545 19.7182 21.0909C19.7455 20.3091 19.7818 19.5182 19.7818 18.7545C19.7818 17.8273 21.1273 17.6182 21.6 17.6182C23.1909 17.6182 23.1909 18.2818 23.1909 18.5273C23.1909 18.6909 23.1909 18.8727 23.1818 19.0636C23.1636 19.6364 23.1455 20.3091 23.2455 20.9636H23.2364ZM26.3636 21.8182C25.6636 21.8182 25.4364 21.5909 25.3636 21.5182C24.9182 21.0545 24.9545 19.9455 24.9818 19.1273C24.9818 18.9182 24.9909 18.7091 24.9909 18.5273C24.9909 16.8182 23.7182 15.8 21.5818 15.8C19.7727 15.8 17.9455 16.8182 17.9455 18.7545C17.9455 19.5 17.9182 20.2727 17.8909 21.0273C17.8636 21.7727 17.8364 22.5091 17.8364 23.1909C17.8364 23.9909 16.8364 24.6636 16.0182 24.6636C15.2 24.6636 14.0909 24 14.0909 23.0727V17.5091C14.0909 17.1636 13.9 16.8545 13.5909 16.7L13.1364 16.4727C13.0182 16.4182 12.8909 16.3818 12.7636 16.3818C5.58182 16.1091 1.81818 13.4273 1.81818 10.9273C1.81818 8.42727 6.28182 6.21818 12 5.62727L10.4545 8.31818C9.83636 9.4 9.91818 10.7 10.6636 11.6909C11.2545 12.4818 12.1455 12.9182 13.0909 12.9182C13.3364 12.9182 13.5909 12.8909 13.8455 12.8273L19.7545 11.3727C21.4909 10.9455 22.8909 9.68182 23.4909 8C23.5818 7.75455 23.6455 7.5 23.6909 7.24546C26.4273 8.37273 28.1364 9.73636 28.1727 10.8545V19.1091C28.1727 21.6273 27.2455 21.8364 26.3636 21.8364V21.8182Z" fill="#2A4992"/>
<path d="M17.2727 5.45441C17.7748 5.45441 18.1818 5.0474 18.1818 4.54532C18.1818 4.04324 17.7748 3.63623 17.2727 3.63623C16.7707 3.63623 16.3636 4.04324 16.3636 4.54532C16.3636 5.0474 16.7707 5.45441 17.2727 5.45441Z" fill="#2A4992"/>
<path d="M18.1818 9.09113C18.6839 9.09113 19.0909 8.68412 19.0909 8.18204C19.0909 7.67996 18.6839 7.27295 18.1818 7.27295C17.6797 7.27295 17.2727 7.67996 17.2727 8.18204C17.2727 8.68412 17.6797 9.09113 18.1818 9.09113Z" fill="#2A4992"/>
</svg>
