<?xml version="1.0" encoding="UTF-8"?><svg id="a" xmlns="http://www.w3.org/2000/svg" viewBox="0 0 40 40"><defs><style>.b{fill:none;}.c{opacity:.5;}</style></defs><g class="c"><rect class="b" x=".55" y=".06" width="39.45" height="39.94"/></g><g><path d="M38.35,37.71h-7.42v-4.71c.66,.25,1.35,.39,2.06,.39,3.33,0,6.05-2.75,6.05-6.12,0-2.36-1.36-4.48-3.42-5.49,.08-.39,.12-.79,.12-1.19,0-3.38-2.71-6.12-6.05-6.12-.59,0-1.16,.09-1.7,.25C27.34,.18,19.59,0,19.24,0c-6.52,0-8.81,7.91-9.56,12.01-.43-.33-.88-.54-1.36-.59-.92-.09-1.78,.11-2.49,.59-1.86,1.26-2.06,4.1-2.08,4.65-.02,.61,.58,1.13,1.36,1.15,.79-.02,1.43-.46,1.45-1.08,.04-.95,.42-2.57,1.1-3.03,.07-.05,.12-.07,.2-.08,1.7,1.14,4.54,11.56,4.16,15.37-.14,1.33-.75,2.32-3.08,2.77v-9.5c0-.62-.49-1.11-1.1-1.11s-1.1,.5-1.1,1.11v9.53c-.61-.15-1.09-.41-1.38-.6-.88-.59-1.43-1.45-1.43-2.25,0-3.37,1.37-9.06,1.38-9.11,.15-.6-.35-1.19-1.12-1.3-.77-.11-1.5,.28-1.65,.88-.06,.24-1.43,5.95-1.43,9.53,0,1.45,.91,2.93,2.43,3.95,.94,.63,2.05,1.03,3.19,1.18v3.64H1.1c-.61,0-1.1,.5-1.1,1.11s.49,1.11,1.1,1.11H38.35c.61,0,1.1-.5,1.1-1.11s-.49-1.11-1.1-1.11Zm-11.96-4.31c.81,0,1.6-.18,2.34-.5v4.81h-8.8v-2.59c1.59-.17,3.28-.73,4.96-1.93,.48,.12,.98,.2,1.5,.2Zm7.15-12.8c0,.49-.1,.98-.28,1.45-.12,.3-.1,.63,.04,.91,.14,.28,.39,.5,.7,.58,1.68,.46,2.85,2,2.85,3.74,0,2.15-1.73,3.9-3.85,3.9-.73,0-1.44-.23-2.06-.63v-4.93c0-.62-.49-1.11-1.1-1.11s-1.1,.5-1.1,1.11v4.72c-.68,.54-1.49,.84-2.34,.84-2.12,0-3.85-1.75-3.85-3.9,0-1.74,1.17-3.28,2.85-3.74,.3-.08,.56-.29,.7-.58,.14-.28,.15-.62,.04-.91-.19-.47-.28-.96-.28-1.45,0-2.15,1.73-3.9,3.85-3.9s3.85,1.75,3.85,3.9ZM11.55,14.45c.12-1.19,1.41-12.23,7.68-12.23,.26,0,6.36,.34,6.6,13.66-1.34,1.12-2.19,2.82-2.19,4.71,0,.4,.04,.8,.12,1.19-2.06,1.01-3.42,3.13-3.42,5.49,0,1.91,.87,3.62,2.23,4.74-.9,.47-1.79,.75-2.64,.88V11.41c0-.62-.49-1.11-1.1-1.11s-1.1,.5-1.1,1.11v21.52c-1.74-.19-3.15-.83-3.89-1.23,.55-.7,.89-1.54,.99-2.53,.19-1.91-.9-10.17-3.27-14.72Zm-2.62,19.59c1.26-.18,2.31-.51,3.18-.96l-.08,.13s2.44,1.64,5.7,1.94v2.57H8.93v-3.67Z"/><path d="M34.09,10.02c-2.73,0-4.95-2.25-4.95-5.01S31.36,0,34.09,0s4.95,2.25,4.95,5.01-2.22,5.01-4.95,5.01Zm0-7.79c-1.52,0-2.75,1.25-2.75,2.78s1.23,2.78,2.75,2.78,2.75-1.25,2.75-2.78-1.23-2.78-2.75-2.78Z"/></g></svg>